<svg width="129" height="149" viewBox="0 0 129 149" fill="none" xmlns="http://www.w3.org/2000/svg">
<path opacity="0.5" fill-rule="evenodd" clip-rule="evenodd" d="M0.135986 64.5023V63.4377C0.135986 28.4021 28.7129 0 63.9641 0H65.0357C100.287 0 128.864 28.4021 128.864 63.4377V64.5028C128.864 99.5384 100.287 127.941 65.0357 127.941H63.9641C28.7129 127.941 0.135986 99.5384 0.135986 64.5028" fill="#434343"/>
<mask id="path-2-inside-1_147418_207342" fill="white">
<path fill-rule="evenodd" clip-rule="evenodd" d="M20.4621 66.2847C20.4106 66.8375 20.2495 67.3747 19.9881 67.8653C19.7267 68.3559 19.3701 68.7902 18.9389 69.1431C18.5078 69.4961 18.0106 69.7607 17.476 69.9217C16.9415 70.0827 16.3801 70.137 15.8244 70.0813C15.2686 70.0256 14.7294 69.8611 14.238 69.5973C13.7465 69.3335 13.3124 68.9756 12.9608 68.5442C12.6092 68.1129 12.347 67.6166 12.1894 67.084C12.0317 66.5514 11.9817 65.9931 12.0423 65.4412C12.1632 64.3383 12.7178 63.3275 13.5852 62.6292C14.4526 61.9308 15.5625 61.6014 16.6731 61.7126C17.7838 61.8239 18.8052 62.3669 19.5149 63.2232C20.2246 64.0796 20.5651 65.18 20.4621 66.2847Z"/>
</mask>
<path fill-rule="evenodd" clip-rule="evenodd" d="M20.4621 66.2847C20.4106 66.8375 20.2495 67.3747 19.9881 67.8653C19.7267 68.3559 19.3701 68.7902 18.9389 69.1431C18.5078 69.4961 18.0106 69.7607 17.476 69.9217C16.9415 70.0827 16.3801 70.137 15.8244 70.0813C15.2686 70.0256 14.7294 69.8611 14.238 69.5973C13.7465 69.3335 13.3124 68.9756 12.9608 68.5442C12.6092 68.1129 12.347 67.6166 12.1894 67.084C12.0317 66.5514 11.9817 65.9931 12.0423 65.4412C12.1632 64.3383 12.7178 63.3275 13.5852 62.6292C14.4526 61.9308 15.5625 61.6014 16.6731 61.7126C17.7838 61.8239 18.8052 62.3669 19.5149 63.2232C20.2246 64.0796 20.5651 65.18 20.4621 66.2847Z" fill="#1F1F1F"/>
<path d="M12.0423 65.4412L11.0482 65.3322L12.0423 65.4412ZM19.4664 66.192C19.4273 66.6125 19.3047 67.0214 19.1056 67.395L20.8706 68.3356C21.1943 67.7281 21.394 67.0626 21.4578 66.3775L19.4664 66.192ZM19.1056 67.395C18.9064 67.7687 18.6346 68.0999 18.3055 68.3693L19.5724 69.9169C20.1055 69.4805 20.5469 68.9431 20.8706 68.3356L19.1056 67.395ZM18.3055 68.3693C17.9763 68.6388 17.5964 68.8411 17.1876 68.9642L17.7644 70.8792C18.4247 70.6803 19.0392 70.3534 19.5724 69.9169L18.3055 68.3693ZM17.1876 68.9642C16.7788 69.0874 16.3493 69.1289 15.9241 69.0863L15.7247 71.0763C16.4109 71.1451 17.1042 71.0781 17.7644 70.8792L17.1876 68.9642ZM15.9241 69.0863C15.4988 69.0437 15.0865 68.9178 14.7109 68.7162L13.765 70.4784C14.3724 70.8044 15.0384 71.0076 15.7247 71.0763L15.9241 69.0863ZM14.7109 68.7162C14.3354 68.5146 14.0041 68.2413 13.736 67.9124L12.1857 69.176C12.6208 69.7098 13.1577 70.1524 13.765 70.4784L14.7109 68.7162ZM13.736 67.9124C13.4679 67.5835 13.2682 67.2055 13.1483 66.8001L11.2305 67.3678C11.4259 68.0277 11.7506 68.6422 12.1857 69.176L13.736 67.9124ZM13.1483 66.8001C13.0283 66.3948 12.9902 65.9701 13.0363 65.5502L11.0482 65.3322C10.9732 66.0161 11.0352 66.708 11.2305 67.3678L13.1483 66.8001ZM13.0363 65.5502C13.1283 64.7114 13.5502 63.9412 14.2123 63.4081L12.958 61.8502C11.8854 62.7139 11.1982 63.9651 11.0482 65.3322L13.0363 65.5502ZM14.2123 63.4081C14.8747 62.8748 15.7233 62.6225 16.5734 62.7076L16.7728 60.7176C15.4016 60.5802 14.0305 60.9868 12.958 61.8502L14.2123 63.4081ZM16.5734 62.7076C17.4235 62.7928 18.2037 63.2082 18.7449 63.8613L20.2849 62.5851C19.4067 61.5255 18.1441 60.855 16.7728 60.7176L16.5734 62.7076ZM18.7449 63.8613C19.286 64.5142 19.5447 65.3519 19.4664 66.192L21.4578 66.3775C21.5854 65.0081 21.1632 63.645 20.2849 62.5851L18.7449 63.8613Z" fill="#1F1F1F" mask="url(#path-2-inside-1_147418_207342)"/>
<path d="M24.8686 74.2466L18.4019 79.7287M19.041 68.0415L24.4003 71.0615L19.041 68.0415Z" stroke="#1F1F1F" stroke-width="2"/>
<mask id="path-5-inside-2_147418_207342" fill="white">
<path fill-rule="evenodd" clip-rule="evenodd" d="M20.5235 80.7737C20.4465 81.5336 20.0689 82.232 19.4738 82.7152C18.8787 83.1984 18.1148 83.4269 17.3502 83.3503C16.5857 83.2738 15.883 82.8985 15.3968 82.307C14.9106 81.7155 14.6807 80.9563 14.7578 80.1964C14.7959 79.8202 14.9082 79.455 15.0883 79.1219C15.2685 78.7888 15.5128 78.4942 15.8075 78.2549C16.1022 78.0157 16.4414 77.8364 16.8057 77.7274C17.1701 77.6185 17.5525 77.5819 17.9311 77.6198C18.3097 77.6577 18.677 77.7693 19.0122 77.9484C19.3474 78.1274 19.6438 78.3702 19.8845 78.6631C20.1253 78.956 20.3056 79.2931 20.4152 79.6552C20.5249 80.0174 20.5617 80.3974 20.5235 80.7737ZM29.58 72.5898C29.5447 72.9712 29.4337 73.3419 29.2535 73.6805C29.0732 74.019 28.8273 74.3188 28.5299 74.5624C28.2325 74.806 27.8895 74.9886 27.5207 75.0997C27.1519 75.2109 26.7646 75.2483 26.3811 75.2099C25.9977 75.1715 25.6257 75.058 25.2866 74.8759C24.9475 74.6938 24.6481 74.4468 24.4056 74.1491C24.1631 73.8514 23.9823 73.5089 23.8737 73.1414C23.7651 72.7739 23.7308 72.3887 23.7728 72.0079C23.8566 71.2476 24.2393 70.5509 24.8374 70.0696C25.4356 69.5883 26.2008 69.3613 26.9666 69.438C27.7323 69.5147 28.4365 69.889 28.926 70.4793C29.4155 71.0695 29.6505 71.8281 29.58 72.5898ZM50.7626 13.4542L66.0092 13.447C66.3172 13.4469 66.6222 13.3865 66.9067 13.2693C67.1913 13.152 67.4498 12.9803 67.6675 12.7637C67.8852 12.5472 68.0579 12.2901 68.1757 12.0073C68.2935 11.7244 68.354 11.4212 68.354 11.1151C68.3538 10.809 68.2931 10.5058 68.1751 10.223C68.0571 9.94025 67.8843 9.68332 67.6664 9.46692C67.4485 9.25052 67.1899 9.07889 66.9053 8.96183C66.6207 8.84477 66.3157 8.78457 66.0077 8.78467L50.7611 8.79127C50.453 8.79137 50.148 8.85178 49.8634 8.96904C49.5789 9.08629 49.3203 9.25811 49.1026 9.47468C48.8848 9.69124 48.7121 9.94831 48.5943 10.2312C48.4765 10.5141 48.416 10.8173 48.4161 11.1235C48.4162 11.4296 48.4769 11.7328 48.5949 12.0156C48.7129 12.2984 48.8858 12.5554 49.1037 12.7718C49.3216 12.9883 49.5802 13.1599 49.8649 13.277C50.1495 13.394 50.4546 13.4543 50.7626 13.4542ZM56.5943 22.7718L71.8409 22.7652C72.457 22.7559 73.0447 22.506 73.4769 22.0696C73.9092 21.6333 74.1513 21.0454 74.1511 20.433C74.1508 19.8206 73.9081 19.2329 73.4755 18.7969C73.0428 18.3609 72.455 18.1116 71.8389 18.1028L56.5923 18.1094C56.2843 18.1095 55.9793 18.17 55.6948 18.2872C55.4103 18.4045 55.1518 18.5763 54.9341 18.7929C54.7164 19.0095 54.5437 19.2665 54.4259 19.5494C54.3082 19.8323 54.2477 20.1355 54.2478 20.4416C54.2479 20.7477 54.3087 21.0509 54.4267 21.3336C54.5447 21.6164 54.7176 21.8733 54.9355 22.0897C55.1534 22.3061 55.4121 22.4777 55.6967 22.5947C55.9813 22.7117 56.2863 22.7719 56.5943 22.7718Z"/>
</mask>
<path fill-rule="evenodd" clip-rule="evenodd" d="M20.5235 80.7737C20.4465 81.5336 20.0689 82.232 19.4738 82.7152C18.8787 83.1984 18.1148 83.4269 17.3502 83.3503C16.5857 83.2738 15.883 82.8985 15.3968 82.307C14.9106 81.7155 14.6807 80.9563 14.7578 80.1964C14.7959 79.8202 14.9082 79.455 15.0883 79.1219C15.2685 78.7888 15.5128 78.4942 15.8075 78.2549C16.1022 78.0157 16.4414 77.8364 16.8057 77.7274C17.1701 77.6185 17.5525 77.5819 17.9311 77.6198C18.3097 77.6577 18.677 77.7693 19.0122 77.9484C19.3474 78.1274 19.6438 78.3702 19.8845 78.6631C20.1253 78.956 20.3056 79.2931 20.4152 79.6552C20.5249 80.0174 20.5617 80.3974 20.5235 80.7737ZM29.58 72.5898C29.5447 72.9712 29.4337 73.3419 29.2535 73.6805C29.0732 74.019 28.8273 74.3188 28.5299 74.5624C28.2325 74.806 27.8895 74.9886 27.5207 75.0997C27.1519 75.2109 26.7646 75.2483 26.3811 75.2099C25.9977 75.1715 25.6257 75.058 25.2866 74.8759C24.9475 74.6938 24.6481 74.4468 24.4056 74.1491C24.1631 73.8514 23.9823 73.5089 23.8737 73.1414C23.7651 72.7739 23.7308 72.3887 23.7728 72.0079C23.8566 71.2476 24.2393 70.5509 24.8374 70.0696C25.4356 69.5883 26.2008 69.3613 26.9666 69.438C27.7323 69.5147 28.4365 69.889 28.926 70.4793C29.4155 71.0695 29.6505 71.8281 29.58 72.5898ZM50.7626 13.4542L66.0092 13.447C66.3172 13.4469 66.6222 13.3865 66.9067 13.2693C67.1913 13.152 67.4498 12.9803 67.6675 12.7637C67.8852 12.5472 68.0579 12.2901 68.1757 12.0073C68.2935 11.7244 68.354 11.4212 68.354 11.1151C68.3538 10.809 68.2931 10.5058 68.1751 10.223C68.0571 9.94025 67.8843 9.68332 67.6664 9.46692C67.4485 9.25052 67.1899 9.07889 66.9053 8.96183C66.6207 8.84477 66.3157 8.78457 66.0077 8.78467L50.7611 8.79127C50.453 8.79137 50.148 8.85178 49.8634 8.96904C49.5789 9.08629 49.3203 9.25811 49.1026 9.47468C48.8848 9.69124 48.7121 9.94831 48.5943 10.2312C48.4765 10.5141 48.416 10.8173 48.4161 11.1235C48.4162 11.4296 48.4769 11.7328 48.5949 12.0156C48.7129 12.2984 48.8858 12.5554 49.1037 12.7718C49.3216 12.9883 49.5802 13.1599 49.8649 13.277C50.1495 13.394 50.4546 13.4543 50.7626 13.4542ZM56.5943 22.7718L71.8409 22.7652C72.457 22.7559 73.0447 22.506 73.4769 22.0696C73.9092 21.6333 74.1513 21.0454 74.1511 20.433C74.1508 19.8206 73.9081 19.2329 73.4755 18.7969C73.0428 18.3609 72.455 18.1116 71.8389 18.1028L56.5923 18.1094C56.2843 18.1095 55.9793 18.17 55.6948 18.2872C55.4103 18.4045 55.1518 18.5763 54.9341 18.7929C54.7164 19.0095 54.5437 19.2665 54.4259 19.5494C54.3082 19.8323 54.2477 20.1355 54.2478 20.4416C54.2479 20.7477 54.3087 21.0509 54.4267 21.3336C54.5447 21.6164 54.7176 21.8733 54.9355 22.0897C55.1534 22.3061 55.4121 22.4777 55.6967 22.5947C55.9813 22.7117 56.2863 22.7719 56.5943 22.7718Z" fill="#1F1F1F"/>
<path d="M20.5235 80.7737L19.5286 80.6729L20.5235 80.7737ZM14.7578 80.1964L13.7629 80.0956L14.7578 80.1964ZM23.7728 72.0079L22.7788 71.8983L23.7728 72.0079ZM66.0092 13.447L66.0089 12.447L66.0087 12.447L66.0092 13.447ZM66.0077 8.78467L66.0073 7.78467L66.0072 7.78467L66.0077 8.78467ZM50.7611 8.79127L50.7614 9.79127H50.7615L50.7611 8.79127ZM71.8409 22.7652L71.8414 23.7652L71.8487 23.7652L71.856 23.7651L71.8409 22.7652ZM71.8389 18.1028L71.8531 17.1029L71.8458 17.1028L71.8385 17.1028L71.8389 18.1028ZM56.5923 18.1094L56.5927 19.1094L56.5923 18.1094ZM19.5286 80.6729C19.4786 81.167 19.2329 81.6227 18.8435 81.9389L20.1042 83.4915C20.905 82.8413 21.4145 81.9002 21.5185 80.8745L19.5286 80.6729ZM18.8435 81.9389C18.4538 82.2553 17.9525 82.4056 17.4499 82.3553L17.2506 84.3453C18.2772 84.4481 19.3036 84.1416 20.1042 83.4915L18.8435 81.9389ZM17.4499 82.3553C16.9473 82.305 16.4869 82.0584 16.1693 81.672L14.6243 82.942C15.279 83.7385 16.224 84.2426 17.2506 84.3453L17.4499 82.3553ZM16.1693 81.672C15.8519 81.2858 15.7026 80.7913 15.7527 80.2973L13.7629 80.0956C13.6589 81.1213 13.9693 82.1452 14.6243 82.942L16.1693 81.672ZM15.7527 80.2973C15.7775 80.0525 15.8506 79.8147 15.968 79.5975L14.2087 78.6463C13.9659 79.0954 13.8143 79.5878 13.7629 80.0956L15.7527 80.2973ZM15.968 79.5975C16.0854 79.3803 16.245 79.1878 16.4378 79.0312L15.1772 77.4786C14.7807 77.8005 14.4515 78.1972 14.2087 78.6463L15.968 79.5975ZM16.4378 79.0312C16.6307 78.8746 16.853 78.7571 17.0923 78.6855L16.5192 76.7694C16.0297 76.9158 15.5736 77.1567 15.1772 77.4786L16.4378 79.0312ZM17.0923 78.6855C17.3315 78.614 17.5827 78.5899 17.8314 78.6148L18.0307 76.6248C17.5223 76.5739 17.0087 76.623 16.5192 76.7694L17.0923 78.6855ZM17.8314 78.6148C18.0802 78.6397 18.3213 78.7131 18.5411 78.8304L19.4833 77.0663C19.0327 76.8256 18.5391 76.6757 18.0307 76.6248L17.8314 78.6148ZM18.5411 78.8304C18.7608 78.9478 18.9548 79.1068 19.112 79.2981L20.657 78.0281C20.3328 77.6337 19.9339 77.3069 19.4833 77.0663L18.5411 78.8304ZM19.112 79.2981C19.2692 79.4894 19.3868 79.7092 19.4581 79.945L21.3723 79.3654C21.2244 78.877 20.9813 78.4226 20.657 78.0281L19.112 79.2981ZM19.4581 79.945C19.5295 80.1808 19.5535 80.4281 19.5286 80.6729L21.5185 80.8745C21.5699 80.3668 21.5202 79.854 21.3723 79.3654L19.4581 79.945ZM28.5842 72.4976C28.5612 72.7467 28.4887 72.989 28.3707 73.2105L30.1362 74.1504C30.3787 73.6948 30.5281 73.1957 30.5757 72.682L28.5842 72.4976ZM28.3707 73.2105C28.2528 73.4321 28.0916 73.6287 27.8962 73.7887L29.1635 75.336C29.563 75.0088 29.8937 74.6059 30.1362 74.1504L28.3707 73.2105ZM27.8962 73.7887C27.7009 73.9488 27.4752 74.069 27.2321 74.1423L27.8092 76.0572C28.3038 75.9082 28.7641 75.6631 29.1635 75.336L27.8962 73.7887ZM27.2321 74.1423C26.9891 74.2155 26.7337 74.2402 26.4808 74.2149L26.2814 76.2049C26.7954 76.2564 27.3147 76.2062 27.8092 76.0572L27.2321 74.1423ZM26.4808 74.2149C26.2279 74.1896 25.9828 74.1147 25.7597 73.9949L24.8135 75.7569C25.2685 76.0012 25.7674 76.1534 26.2814 76.2049L26.4808 74.2149ZM25.7597 73.9949C25.5365 73.8751 25.3399 73.7127 25.1809 73.5176L23.6303 74.7807C23.9563 75.1809 24.3585 75.5126 24.8135 75.7569L25.7597 73.9949ZM25.1809 73.5176C25.0219 73.3224 24.9037 73.0982 24.8327 72.858L22.9147 73.4249C23.061 73.9197 23.3043 74.3805 23.6303 74.7807L25.1809 73.5176ZM24.8327 72.858C24.7617 72.6178 24.7393 72.3662 24.7668 72.1176L22.7788 71.8983C22.7222 72.4112 22.7685 72.93 22.9147 73.4249L24.8327 72.858ZM24.7668 72.1176C24.8215 71.6212 25.0714 71.1649 25.4643 70.8487L24.2105 69.2905C23.4071 69.937 22.8918 70.874 22.7788 71.8983L24.7668 72.1176ZM25.4643 70.8487C25.8575 70.5324 26.3616 70.3824 26.8669 70.433L27.0662 68.443C26.0401 68.3402 25.0137 68.6442 24.2105 69.2905L25.4643 70.8487ZM26.8669 70.433C27.3721 70.4837 27.8352 70.7304 28.1562 71.1176L29.6958 69.841C29.0378 69.0475 28.0925 68.5458 27.0662 68.443L26.8669 70.433ZM28.1562 71.1176C28.477 71.5044 28.6303 72.0004 28.5842 72.4976L30.5757 72.682C30.6707 71.6557 30.3539 70.6346 29.6958 69.841L28.1562 71.1176ZM50.7631 14.4542L66.0097 14.447L66.0087 12.447L50.7621 12.4542L50.7631 14.4542ZM66.0095 14.447C66.448 14.4469 66.8823 14.3609 67.2877 14.1939L66.5257 12.3447C66.3621 12.4122 66.1864 12.447 66.0089 12.447L66.0095 14.447ZM67.2877 14.1939C67.6931 14.0268 68.0618 13.7819 68.3727 13.4728L66.9623 12.0547C66.8377 12.1786 66.6894 12.2773 66.5257 12.3447L67.2877 14.1939ZM68.3727 13.4728C68.6835 13.1636 68.9304 12.7963 69.0989 12.3916L67.2525 11.6229C67.1855 11.7839 67.087 11.9307 66.9623 12.0547L68.3727 13.4728ZM69.0989 12.3916C69.2674 11.987 69.3541 11.5531 69.354 11.1148L67.354 11.1154C67.354 11.2894 67.3196 11.4618 67.2525 11.6229L69.0989 12.3916ZM69.354 11.1148C69.3538 10.6764 69.2668 10.2426 69.098 9.83805L67.2522 10.608C67.3194 10.7691 67.3539 10.9415 67.354 11.1154L69.354 11.1148ZM69.098 9.83805C68.9293 9.4335 68.6822 9.06636 68.3711 8.75741L66.9617 10.1764C67.0864 10.3003 67.185 10.447 67.2522 10.608L69.098 9.83805ZM68.3711 8.75741C68.0601 8.44848 67.6912 8.20378 67.2857 8.037L66.5249 9.88666C66.6886 9.95399 66.837 10.0526 66.9617 10.1764L68.3711 8.75741ZM67.2857 8.037C66.8802 7.87022 66.4458 7.78453 66.0073 7.78467L66.008 9.78467C66.1855 9.78461 66.3612 9.81932 66.5249 9.88666L67.2857 8.037ZM66.0072 7.78467L50.7606 7.79127L50.7615 9.79127L66.0081 9.78467L66.0072 7.78467ZM50.7607 7.79127C50.3222 7.79142 49.8879 7.8774 49.4825 8.04445L50.2444 9.89362C50.4081 9.82616 50.5838 9.79133 50.7614 9.79127L50.7607 7.79127ZM49.4825 8.04445C49.077 8.21152 48.7083 8.45647 48.3974 8.76563L49.8077 10.1837C49.9324 10.0597 50.0807 9.96107 50.2444 9.89362L49.4825 8.04445ZM48.3974 8.76563C48.0865 9.07481 47.8397 9.44214 47.6712 9.84683L49.5175 10.6156C49.5846 10.4545 49.6831 10.3077 49.8077 10.1837L48.3974 8.76563ZM47.6712 9.84683C47.5026 10.2515 47.4159 10.6855 47.4161 11.1238L49.4161 11.1231C49.416 10.9492 49.4504 10.7767 49.5175 10.6156L47.6712 9.84683ZM47.4161 11.1238C47.4162 11.5621 47.5032 11.996 47.672 12.4006L49.5178 11.6306C49.4506 11.4696 49.4161 11.2971 49.4161 11.1231L47.4161 11.1238ZM47.672 12.4006C47.8408 12.8052 48.0879 13.1724 48.399 13.4813L49.8084 12.0623C49.6836 11.9384 49.585 11.7917 49.5178 11.6306L47.672 12.4006ZM48.399 13.4813C48.71 13.7903 49.0789 14.035 49.4845 14.2018L50.2452 12.3521C50.0815 12.2848 49.9331 12.1862 49.8084 12.0623L48.399 13.4813ZM49.4845 14.2018C49.89 14.3686 50.3244 14.4543 50.7629 14.4542L50.7623 12.4542C50.5847 12.4542 50.409 12.4195 50.2452 12.3521L49.4845 14.2018ZM56.5948 23.7718L71.8414 23.7652L71.8405 21.7652L56.5939 21.7718L56.5948 23.7718ZM71.856 23.7651C72.7328 23.7518 73.5704 23.3963 74.1874 22.7734L72.7665 21.3659C72.519 21.6158 72.1812 21.7599 71.8258 21.7653L71.856 23.7651ZM74.1874 22.7734C74.8046 22.1503 75.1515 21.3095 75.1511 20.4325L73.1511 20.4334C73.1512 20.7812 73.0138 21.1162 72.7665 21.3659L74.1874 22.7734ZM75.1511 20.4325C75.1507 19.5555 74.8031 18.7151 74.1853 18.0925L72.7656 19.5013C73.0132 19.7507 73.1509 20.0857 73.1511 20.4334L75.1511 20.4325ZM74.1853 18.0925C73.5678 17.4702 72.7299 17.1154 71.8531 17.1029L71.8247 19.1027C72.18 19.1078 72.5179 19.2516 72.7656 19.5013L74.1853 18.0925ZM71.8385 17.1028L56.5919 17.1094L56.5927 19.1094L71.8393 19.1028L71.8385 17.1028ZM56.5919 17.1094C56.1534 17.1096 55.7191 17.1956 55.3137 17.3627L56.0759 19.2118C56.2395 19.1443 56.4152 19.1095 56.5927 19.1094L56.5919 17.1094ZM55.3137 17.3627C54.9083 17.5298 54.5396 17.7748 54.2288 18.084L55.6393 19.5019C55.7639 19.3779 55.9122 19.2792 56.0759 19.2118L55.3137 17.3627ZM54.2288 18.084C53.918 18.3931 53.6712 18.7605 53.5027 19.1651L55.3492 19.9337C55.4162 19.7726 55.5147 19.6258 55.6393 19.5019L54.2288 18.084ZM53.5027 19.1651C53.3343 19.5698 53.2476 20.0037 53.2478 20.442L55.2478 20.4412C55.2477 20.2672 55.2821 20.0948 55.3492 19.9337L53.5027 19.1651ZM53.2478 20.442C53.248 20.8804 53.335 21.3142 53.5039 21.7187L55.3496 20.9485C55.2824 20.7875 55.2479 20.6151 55.2478 20.4412L53.2478 20.442ZM53.5039 21.7187C53.6727 22.1233 53.9198 22.4904 54.2309 22.7993L55.6401 21.3801C55.5154 21.2563 55.4168 21.1096 55.3496 20.9485L53.5039 21.7187ZM54.2309 22.7993C54.542 23.1082 54.9109 23.3528 55.3164 23.5196L56.077 21.6698C55.9132 21.6025 55.7649 21.504 55.6401 21.3801L54.2309 22.7993ZM55.3164 23.5196C55.7219 23.6863 56.1563 23.772 56.5948 23.7718L56.5939 21.7718C56.4164 21.7719 56.2407 21.7372 56.077 21.6698L55.3164 23.5196Z" fill="#1F1F1F" mask="url(#path-5-inside-2_147418_207342)"/>
<mask id="path-7-inside-3_147418_207342" fill="white">
<path fill-rule="evenodd" clip-rule="evenodd" d="M57.8081 13.4472V13.4462L65.8783 13.4431C65.5673 13.4387 65.2586 13.4957 64.9701 13.6109C64.6815 13.7261 64.4189 13.8972 64.1974 14.1141C63.976 14.3311 63.8002 14.5897 63.6802 14.8749C63.5602 15.16 63.4985 15.466 63.4986 15.7751C63.4987 16.0841 63.5607 16.3901 63.6808 16.6752C63.801 16.9602 63.9769 17.2187 64.1985 17.4355C64.4201 17.6524 64.6828 17.8233 64.9715 17.9383C65.2601 18.0533 65.5689 18.1101 65.8798 18.1055L57.8102 18.109V18.108C58.432 18.1078 59.0283 17.862 59.4679 17.4247C59.9074 16.9875 60.1542 16.3947 60.1539 15.7766C60.1536 15.1585 59.9063 14.5659 59.4664 14.129C59.0265 13.6922 58.43 13.4469 57.8081 13.4472ZM94.4802 68.7386C94.1974 71.5258 91.6952 73.5575 88.8913 73.2765C86.0869 72.9954 84.0428 70.508 84.3255 67.7212C84.6077 64.934 87.1105 62.9024 89.9149 63.1834C92.7193 63.4644 94.7634 65.9513 94.4807 68.7386"/>
</mask>
<path fill-rule="evenodd" clip-rule="evenodd" d="M57.8081 13.4472V13.4462L65.8783 13.4431C65.5673 13.4387 65.2586 13.4957 64.9701 13.6109C64.6815 13.7261 64.4189 13.8972 64.1974 14.1141C63.976 14.3311 63.8002 14.5897 63.6802 14.8749C63.5602 15.16 63.4985 15.466 63.4986 15.7751C63.4987 16.0841 63.5607 16.3901 63.6808 16.6752C63.801 16.9602 63.9769 17.2187 64.1985 17.4355C64.4201 17.6524 64.6828 17.8233 64.9715 17.9383C65.2601 18.0533 65.5689 18.1101 65.8798 18.1055L57.8102 18.109V18.108C58.432 18.1078 59.0283 17.862 59.4679 17.4247C59.9074 16.9875 60.1542 16.3947 60.1539 15.7766C60.1536 15.1585 59.9063 14.5659 59.4664 14.129C59.0265 13.6922 58.43 13.4469 57.8081 13.4472ZM94.4802 68.7386C94.1974 71.5258 91.6952 73.5575 88.8913 73.2765C86.0869 72.9954 84.0428 70.508 84.3255 67.7212C84.6077 64.934 87.1105 62.9024 89.9149 63.1834C92.7193 63.4644 94.7634 65.9513 94.4807 68.7386" fill="#1F1F1F"/>
<path d="M57.8081 13.4462L57.8077 12.4462L56.8081 12.4465V13.4462H57.8081ZM65.8783 13.4431L65.8786 14.4431L65.8926 12.4432L65.8783 13.4431ZM65.8798 18.1055L65.8948 19.1054L65.8794 17.1055L65.8798 18.1055ZM57.8102 18.109H56.8102V19.1095L57.8106 19.109L57.8102 18.109ZM57.8102 18.108L57.8097 17.108L56.8102 17.1085V18.108H57.8102ZM88.8913 73.2765L88.991 72.2814L88.991 72.2814L88.8913 73.2765ZM84.3255 67.7212L85.3204 67.8222L85.3204 67.822L84.3255 67.7212ZM58.8081 13.4472V13.4462H56.8081V13.4472H58.8081ZM57.8085 14.4462L65.8786 14.4431L65.8779 12.4431L57.8077 12.4462L57.8085 14.4462ZM65.8926 12.4432C65.45 12.4369 65.0104 12.518 64.5993 12.6822L65.3408 14.5396C65.5068 14.4733 65.6847 14.4404 65.8639 14.443L65.8926 12.4432ZM64.5993 12.6822C64.1882 12.8463 63.8136 13.0902 63.4975 13.3999L64.8973 14.8284C65.0241 14.7041 65.1748 14.6059 65.3408 14.5396L64.5993 12.6822ZM63.4975 13.3999C63.1814 13.7097 62.9301 14.0792 62.7585 14.4871L64.602 15.2627C64.6703 15.1003 64.7706 14.9526 64.8973 14.8284L63.4975 13.3999ZM62.7585 14.4871C62.5869 14.895 62.4985 15.3329 62.4986 15.7754L64.4986 15.7747C64.4986 15.5991 64.5336 15.4251 64.602 15.2627L62.7585 14.4871ZM62.4986 15.7754C62.4988 16.2179 62.5874 16.6558 62.7593 17.0636L64.6023 16.2867C64.5339 16.1244 64.4987 15.9504 64.4986 15.7747L62.4986 15.7754ZM62.7593 17.0636C62.9312 17.4713 63.1828 17.8407 63.4991 18.1502L64.898 16.7209C64.7711 16.5967 64.6707 16.4491 64.6023 16.2867L62.7593 17.0636ZM63.4991 18.1502C63.8154 18.4598 64.1901 18.7034 64.6013 18.8673L65.3416 17.0093C65.1756 16.9432 65.0248 16.845 64.898 16.7209L63.4991 18.1502ZM64.6013 18.8673C65.0125 19.0311 65.4522 19.112 65.8948 19.1054L65.8648 17.1056C65.6856 17.1083 65.5077 17.0755 65.3416 17.0093L64.6013 18.8673ZM65.8794 17.1055L57.8097 17.109L57.8106 19.109L65.8802 19.1055L65.8794 17.1055ZM58.8102 18.109V18.108H56.8102V18.109H58.8102ZM57.8106 19.108C58.6957 19.1076 59.5456 18.7579 60.1731 18.1337L58.7626 16.7158C58.511 16.9661 58.1683 17.1079 57.8097 17.108L57.8106 19.108ZM60.1731 18.1337C60.8008 17.5093 61.1543 16.6614 61.1539 15.7761L59.1539 15.777C59.154 16.1279 59.014 16.4657 58.7626 16.7158L60.1731 18.1337ZM61.1539 15.7761C61.1535 14.8909 60.7992 14.0433 60.171 13.4194L58.7618 14.8386C59.0134 15.0885 59.1537 15.4262 59.1539 15.777L61.1539 15.7761ZM60.171 13.4194C59.543 12.7958 58.6928 12.4468 57.8077 12.4472L57.8085 14.4472C58.1672 14.447 58.5099 14.5885 58.7618 14.8386L60.171 13.4194ZM93.4853 68.6377C93.2588 70.8704 91.2514 72.508 88.991 72.2814L88.7916 74.2715C92.139 74.607 95.1361 72.1812 95.4751 68.8395L93.4853 68.6377ZM88.991 72.2814C86.7309 72.055 85.094 70.0533 85.3204 67.8222L83.3306 67.6203C82.9915 70.9627 85.4428 73.9359 88.7916 74.2715L88.991 72.2814ZM85.3204 67.822C85.5465 65.5896 87.5541 63.9518 89.8152 64.1784L90.0146 62.1884C86.6669 61.8529 83.669 64.2784 83.3306 67.6205L85.3204 67.822ZM89.8152 64.1784C92.0753 64.4049 93.7122 66.406 93.4858 68.6377L95.4756 68.8395C95.8147 65.4966 93.3633 62.5239 90.0146 62.1884L89.8152 64.1784Z" fill="#1F1F1F" mask="url(#path-7-inside-3_147418_207342)"/>
<path d="M98.8175 79.3128L91.0178 85.9245M91.7893 71.8291L98.252 75.4711L91.7893 71.8291Z" stroke="#1F1F1F" stroke-width="2"/>
<mask id="path-10-inside-4_147418_207342" fill="white">
<path fill-rule="evenodd" clip-rule="evenodd" d="M94.5544 86.2137C94.5135 86.6715 94.3816 87.1167 94.1663 87.5234C93.951 87.9302 93.6566 88.2904 93.3002 88.5832C92.9438 88.8761 92.5324 89.0957 92.09 89.2294C91.6476 89.3631 91.1828 89.4081 90.7227 89.362C90.2627 89.3159 89.8163 89.1795 89.4097 88.9606C89.003 88.7418 88.6441 88.445 88.3537 88.0873C88.0634 87.7296 87.8473 87.3182 87.7181 86.8769C87.5889 86.4356 87.549 85.9732 87.6009 85.5165C87.7041 84.6083 88.1634 83.7771 88.8791 83.2031C89.5948 82.6292 90.5093 82.3588 91.4243 82.4505C92.3393 82.5423 93.181 82.9888 93.7669 83.6932C94.3529 84.3977 94.6358 85.3033 94.5544 86.2137ZM104.101 77.7112C104.058 78.1711 103.924 78.618 103.707 79.0262C103.489 79.4344 103.193 79.7957 102.834 80.0894C102.475 80.3831 102.062 80.6032 101.617 80.7372C101.172 80.8711 100.705 80.9162 100.243 80.8698C99.7803 80.8235 99.3317 80.6866 98.9228 80.4671C98.5139 80.2475 98.1528 79.9497 97.8603 79.5907C97.5679 79.2318 97.3498 78.8189 97.2187 78.3757C97.0876 77.9326 97.0461 77.468 97.0966 77.0089C97.1974 76.0915 97.6589 75.2508 98.3805 74.6699C99.1021 74.0891 100.025 73.8152 100.949 73.9078C101.873 74.0004 102.723 74.4521 103.313 75.1645C103.903 75.8769 104.187 76.7922 104.101 77.7112Z"/>
</mask>
<path fill-rule="evenodd" clip-rule="evenodd" d="M94.5544 86.2137C94.5135 86.6715 94.3816 87.1167 94.1663 87.5234C93.951 87.9302 93.6566 88.2904 93.3002 88.5832C92.9438 88.8761 92.5324 89.0957 92.09 89.2294C91.6476 89.3631 91.1828 89.4081 90.7227 89.362C90.2627 89.3159 89.8163 89.1795 89.4097 88.9606C89.003 88.7418 88.6441 88.445 88.3537 88.0873C88.0634 87.7296 87.8473 87.3182 87.7181 86.8769C87.5889 86.4356 87.549 85.9732 87.6009 85.5165C87.7041 84.6083 88.1634 83.7771 88.8791 83.2031C89.5948 82.6292 90.5093 82.3588 91.4243 82.4505C92.3393 82.5423 93.181 82.9888 93.7669 83.6932C94.3529 84.3977 94.6358 85.3033 94.5544 86.2137ZM104.101 77.7112C104.058 78.1711 103.924 78.618 103.707 79.0262C103.489 79.4344 103.193 79.7957 102.834 80.0894C102.475 80.3831 102.062 80.6032 101.617 80.7372C101.172 80.8711 100.705 80.9162 100.243 80.8698C99.7803 80.8235 99.3317 80.6866 98.9228 80.4671C98.5139 80.2475 98.1528 79.9497 97.8603 79.5907C97.5679 79.2318 97.3498 78.8189 97.2187 78.3757C97.0876 77.9326 97.0461 77.468 97.0966 77.0089C97.1974 76.0915 97.6589 75.2508 98.3805 74.6699C99.1021 74.0891 100.025 73.8152 100.949 73.9078C101.873 74.0004 102.723 74.4521 103.313 75.1645C103.903 75.8769 104.187 76.7922 104.101 77.7112Z" fill="#1F1F1F"/>
<path d="M87.6009 85.5165L86.6073 85.4036L87.6009 85.5165ZM97.0966 77.0089L98.0906 77.1181L97.0966 77.0089ZM93.5584 86.1247C93.5293 86.4498 93.4356 86.7662 93.2824 87.0556L95.0501 87.9913C95.3275 87.4671 95.4977 86.8932 95.5505 86.3028L93.5584 86.1247ZM93.2824 87.0556C93.1293 87.345 92.9196 87.6017 92.6653 87.8106L93.935 89.3559C94.3935 88.9791 94.7726 88.5154 95.0501 87.9913L93.2824 87.0556ZM92.6653 87.8106C92.411 88.0195 92.1172 88.1765 91.8008 88.2721L92.3792 90.1866C92.9477 90.0149 93.4765 89.7326 93.935 89.3559L92.6653 87.8106ZM91.8008 88.2721C91.4843 88.3677 91.1518 88.4 90.8225 88.367L90.623 90.357C91.2139 90.4163 91.8108 90.3584 92.3792 90.1866L91.8008 88.2721ZM90.8225 88.367C90.4932 88.334 90.1741 88.2364 89.8835 88.08L88.9358 89.8412C89.4586 90.1225 90.0321 90.2978 90.623 90.357L90.8225 88.367ZM89.8835 88.08C89.593 87.9237 89.337 87.7118 89.1301 87.457L87.5774 88.7175C87.9513 89.1781 88.4131 89.5599 88.9358 89.8412L89.8835 88.08ZM89.1301 87.457C88.9233 87.2022 88.7696 86.9095 88.6778 86.5959L86.7584 87.1579C86.925 87.7269 87.2035 88.257 87.5774 88.7175L89.1301 87.457ZM88.6778 86.5959C88.586 86.2823 88.5577 85.9538 88.5945 85.6294L86.6073 85.4036C86.5404 85.9926 86.5918 86.5889 86.7584 87.1579L88.6778 86.5959ZM88.5945 85.6294C88.6678 84.9845 88.9941 84.3928 89.5047 83.9833L88.2535 82.423C87.3327 83.1614 86.7404 84.232 86.6073 85.4036L88.5945 85.6294ZM89.5047 83.9833C90.0155 83.5736 90.6694 83.3799 91.3245 83.4455L91.524 81.4555C90.3492 81.3377 89.1741 81.6848 88.2535 82.423L89.5047 83.9833ZM91.3245 83.4455C91.9795 83.5112 92.5806 83.8307 92.9981 84.3327L94.5357 83.0537C93.7814 82.1468 92.699 81.5733 91.524 81.4555L91.3245 83.4455ZM92.9981 84.3327C93.4155 84.8345 93.6162 85.4783 93.5584 86.1247L95.5505 86.3028C95.6555 85.1283 95.2903 83.9609 94.5357 83.0537L92.9981 84.3327ZM103.106 77.6185C103.075 77.9461 102.98 78.2647 102.824 78.556L104.589 79.4965C104.869 78.9713 105.042 78.3961 105.097 77.8039L103.106 77.6185ZM102.824 78.556C102.669 78.8472 102.457 79.1055 102.201 79.3156L103.467 80.8632C103.928 80.486 104.31 80.0216 104.589 79.4965L102.824 78.556ZM102.201 79.3156C101.944 79.5257 101.647 79.6836 101.328 79.7796L101.905 81.6947C102.476 81.5229 103.007 81.2404 103.467 80.8632L102.201 79.3156ZM101.328 79.7796C101.009 79.8757 100.674 79.9081 100.342 79.8748L100.143 81.8649C100.736 81.9243 101.335 81.8665 101.905 81.6947L101.328 79.7796ZM100.342 79.8748C100.011 79.8416 99.6888 79.7433 99.3958 79.586L98.4498 81.3481C98.9745 81.6299 99.55 81.8054 100.143 81.8649L100.342 79.8748ZM99.3958 79.586C99.1029 79.4287 98.8445 79.2155 98.6356 78.9591L97.0851 80.2224C97.4611 80.6838 97.925 81.0663 98.4498 81.3481L99.3958 79.586ZM98.6356 78.9591C98.4266 78.7026 98.2711 78.4079 98.1776 78.0921L96.2598 78.6594C96.4285 79.2298 96.7091 79.761 97.0851 80.2224L98.6356 78.9591ZM98.1776 78.0921C98.0842 77.7762 98.0546 77.4452 98.0906 77.1181L96.1025 76.8996C96.0376 77.4909 96.091 78.089 96.2598 78.6594L98.1776 78.0921ZM98.0906 77.1181C98.1624 76.4648 98.4912 75.8646 99.0075 75.4489L97.7535 73.8909C96.8266 74.637 96.2324 75.7181 96.1025 76.8996L98.0906 77.1181ZM99.0075 75.4489C99.5241 75.0332 100.186 74.8363 100.85 74.9028L101.049 72.9128C99.8646 72.7941 98.6801 73.1451 97.7535 73.8909L99.0075 75.4489ZM100.85 74.9028C101.513 74.9693 102.121 75.2935 102.543 75.8026L104.083 74.5264C103.324 73.6108 102.233 73.0316 101.049 72.9128L100.85 74.9028ZM102.543 75.8026C102.965 76.3114 103.166 76.9641 103.106 77.6185L105.097 77.8039C105.207 76.6203 104.842 75.4423 104.083 74.5264L102.543 75.8026Z" fill="#1F1F1F" mask="url(#path-10-inside-4_147418_207342)"/>
<path fill-rule="evenodd" clip-rule="evenodd" d="M77.8163 97.5284C77.8163 97.8279 77.6967 98.1151 77.4836 98.3268C77.2705 98.5386 76.9816 98.6575 76.6803 98.6575C76.379 98.6575 76.09 98.5386 75.8769 98.3268C75.6639 98.1151 75.5442 97.8279 75.5442 97.5284C75.5442 97.2289 75.6639 96.9417 75.8769 96.73C76.09 96.5182 76.379 96.3993 76.6803 96.3993C76.9816 96.3993 77.2705 96.5182 77.4836 96.73C77.6967 96.9417 77.8163 97.2289 77.8163 97.5284V97.5284ZM115.314 58.772C115.314 59.0716 115.194 59.3588 114.981 59.5706C114.768 59.7824 114.479 59.9014 114.177 59.9014C113.876 59.9014 113.587 59.7824 113.374 59.5706C113.161 59.3588 113.041 59.0716 113.041 58.772C113.041 58.4726 113.161 58.1854 113.374 57.9736C113.587 57.7619 113.876 57.6429 114.177 57.6429C114.478 57.6429 114.767 57.7619 114.98 57.9736C115.193 58.1854 115.313 58.4726 115.313 58.772H115.314ZM110.768 76.5698C110.768 76.7182 110.739 76.8651 110.682 77.0021C110.625 77.1391 110.541 77.2637 110.435 77.3685C110.33 77.4734 110.204 77.5566 110.066 77.6133C109.929 77.6701 109.781 77.6993 109.631 77.6992C109.482 77.6992 109.334 77.6699 109.197 77.6131C109.059 77.5563 108.933 77.4731 108.828 77.3682C108.722 77.2633 108.639 77.1387 108.582 77.0016C108.524 76.8646 108.495 76.7177 108.495 76.5693C108.495 76.2697 108.615 75.9824 108.828 75.7705C109.041 75.5587 109.33 75.4397 109.632 75.4397C109.933 75.4397 110.222 75.5587 110.435 75.7705C110.649 75.9824 110.768 76.2697 110.768 76.5693V76.5698ZM90.5914 54.4933C90.5946 54.6436 90.5676 54.7931 90.5119 54.9329C90.4562 55.0727 90.373 55.2001 90.2672 55.3075C90.1614 55.415 90.035 55.5003 89.8955 55.5586C89.7561 55.6169 89.6063 55.6469 89.455 55.6469C89.3037 55.6469 89.154 55.6169 89.0145 55.5586C88.8751 55.5003 88.7487 55.415 88.6429 55.3075C88.537 55.2001 88.4538 55.0727 88.3982 54.9329C88.3425 54.7931 88.3155 54.6436 88.3187 54.4933C88.325 54.1979 88.4475 53.9168 88.6599 53.7101C88.8723 53.5034 89.1578 53.3876 89.455 53.3876C89.7523 53.3876 90.0377 53.5034 90.2502 53.7101C90.4626 53.9168 90.5851 54.1979 90.5914 54.4933ZM99.9858 46.6316C99.989 46.7819 99.962 46.9313 99.9063 47.0712C99.8506 47.211 99.7674 47.3383 99.6616 47.4458C99.5558 47.5532 99.4294 47.6386 99.2899 47.6969C99.1505 47.7551 99.0007 47.7852 98.8494 47.7852C98.6981 47.7852 98.5484 47.7551 98.4089 47.6969C98.2694 47.6386 98.1431 47.5532 98.0373 47.4458C97.9314 47.3383 97.8482 47.211 97.7926 47.0712C97.7369 46.9313 97.7099 46.7819 97.7131 46.6316C97.7194 46.3362 97.8419 46.055 98.0543 45.8483C98.2667 45.6416 98.5522 45.5259 98.8494 45.5259C99.1467 45.5259 99.4321 45.6416 99.6445 45.8483C99.857 46.055 99.9795 46.3362 99.9858 46.6316V46.6316ZM103.446 91.6271C103.446 91.9267 103.326 92.2141 103.113 92.4259C102.9 92.6378 102.61 92.7568 102.309 92.7568C102.008 92.7568 101.719 92.6378 101.505 92.4259C101.292 92.2141 101.172 91.9267 101.172 91.6271C101.172 91.3275 101.292 91.0402 101.505 90.8284C101.719 90.6165 102.008 90.4975 102.309 90.4975C102.61 90.4975 102.9 90.6165 103.113 90.8284C103.326 91.0402 103.446 91.3275 103.446 91.6271V91.6271Z" stroke="#1F1F1F" stroke-width="2"/>
<path d="M113.04 59.3792L106.475 63.3942L98.6477 59.3787V47.7627M109.758 77.6994L108.78 87.9561L103.193 91L109.758 77.6994ZM88.9266 88.6198L85.6768 93.6069H79.8686L77.5637 96.9018L88.9266 88.6198ZM89.581 63.4029V55.3719V63.4029Z" stroke="#1F1F1F" stroke-width="2"/>
<path d="M85.3094 32.8033H83.2907C82.7796 32.8017 82.2904 32.5992 81.9298 32.2409C81.5695 31.8829 81.3669 31.3985 81.365 30.8935C81.3668 30.3885 81.5694 29.904 81.9297 29.5459C82.2903 29.1875 82.7795 28.985 83.2907 28.9834H85.3094C85.8206 28.985 86.3099 29.1875 86.6705 29.5459C87.0308 29.904 87.2334 30.3885 87.2351 30.8936C87.2333 31.3986 87.0306 31.883 86.6703 32.2409C86.3098 32.5992 85.8206 32.8017 85.3094 32.8033Z" fill="#1F1F1F" stroke="#1F1F1F"/>
<path fill-rule="evenodd" clip-rule="evenodd" d="M89.521 15.0572C89.521 6.78387 96.269 0.0766602 104.594 0.0766602C112.917 0.0766602 119.666 6.78387 119.666 15.0572C119.666 23.3301 112.917 30.0378 104.594 30.0378C96.269 30.0378 89.521 23.3301 89.521 15.0572Z" fill="#1890FF"/>
<path fill-rule="evenodd" clip-rule="evenodd" d="M105.437 19.3044C105.692 19.5585 105.838 19.8848 105.838 20.2842C105.838 20.6836 105.692 21.0286 105.437 21.2822C105.144 21.5363 104.816 21.6633 104.414 21.6633C104.013 21.6633 103.684 21.5185 103.428 21.2644C103.135 21.0103 103.009 20.6836 103.009 20.2842C103.009 19.8848 103.135 19.5585 103.428 19.3044C103.684 19.0504 104.013 18.9233 104.415 18.9233C104.816 18.9233 105.162 19.0504 105.437 19.3044ZM107.628 9.41412C108.358 10.0488 108.723 10.9198 108.723 12.0271C108.723 12.897 108.505 13.6176 108.1 14.1868C108.066 14.2355 108.03 14.2782 107.989 14.3214C107.776 14.5394 107.268 15.0054 106.477 15.6929C106.17 15.931 105.92 16.235 105.747 16.5822C105.562 16.9546 105.469 17.3649 105.473 17.78V18.034H103.373V17.78C103.373 17.0904 103.483 16.4913 103.738 16.0014C103.975 15.5115 104.688 14.7493 105.874 13.6964L106.094 13.4423C106.423 13.0434 106.587 12.6074 106.587 12.1541C106.587 11.5545 106.404 11.0829 106.076 10.7389C105.729 10.3933 105.236 10.2302 104.615 10.2302C103.829 10.2302 103.264 10.466 102.898 10.9569C102.709 11.211 102.581 11.5337 102.51 11.9244C102.466 12.1578 102.341 12.3684 102.156 12.5197C101.972 12.671 101.741 12.7535 101.502 12.7527H101.5C100.847 12.7527 100.346 12.1516 100.487 11.5179C100.66 10.7465 101.009 10.1052 101.547 9.59502C102.333 8.83278 103.392 8.45166 104.743 8.45166C105.929 8.45166 106.897 8.76011 107.628 9.41412Z" fill="white"/>
<path fill-rule="evenodd" clip-rule="evenodd" d="M26.7433 38.4839C26.7433 38.4839 37.8945 41.2076 40.705 46.5865C43.5555 52.0441 37.4574 51.2921 32.6625 49.0943C27.1099 46.5494 20.0337 43.0868 26.7433 38.4839Z" fill="#FFB594"/>
<path fill-rule="evenodd" clip-rule="evenodd" d="M46.3988 34.1L46.1693 35.5701C45.7843 35.8191 43.7417 34.2169 43.7417 34.2169L42.9006 34.597L42.2124 31.7086C42.2124 31.7086 45.6968 29.3767 46.7715 29.1587C48.0252 28.9041 51.8251 29.6364 52.2423 30.3163C52.2423 30.3163 52.9172 30.5632 51.1037 30.6669C49.2896 30.7701 48.5253 30.8941 47.632 32.2585C46.7388 33.6234 46.3988 34.1 46.3988 34.1Z" fill="#FFC6A0"/>
<path fill-rule="evenodd" clip-rule="evenodd" d="M65.6088 56.3898C64.2656 52.4648 62.4644 49.6923 61.0496 48.5245C59.2601 47.0478 56.2742 47.3939 55.2384 46.3968C54.589 45.7713 53.5946 45.7886 53.5946 45.7886C53.5946 45.7886 45.9355 44.1838 44.9906 44.0207C43.7789 43.8123 43.9047 43.6579 41.8953 43.3067C41.0926 42.3377 40.4039 42.7366 40.4039 42.7366L36.7686 42.0338C36.3325 41.2858 35.5298 41.5139 35.5298 41.5139L34.2679 41.0581C33.4268 46.1275 30.3105 48.0687 30.3105 48.0687C31.2283 48.6388 38.3393 52.2864 38.3393 52.2864L40.9504 71.1442C40.9504 71.1442 39.2524 74.0377 41.6386 75.7731C41.6386 75.7731 51.8046 73.871 59.4933 75.6059C59.4933 75.6059 61.0512 74.3121 59.9903 71.131C60.2577 69.6015 60.703 66.9321 60.8779 65.2252C61.0747 65.6175 61.9101 66.1998 62.4833 66.9921C62.4833 66.9921 67.293 63.2495 68.134 59.8717C67.7087 59.5043 67.317 59.0663 66.975 58.6252C66.6851 58.2512 66.7919 57.5804 66.5838 57.2445C66.2418 56.6937 65.6615 56.5443 65.6088 56.3898Z" fill="white"/>
<path fill-rule="evenodd" clip-rule="evenodd" d="M51.8219 147.162C51.8219 147.162 54.0179 148.199 55.5819 147.681C57.0243 147.203 57.8981 148.021 59.2019 148.28C60.5056 148.539 62.7164 148.839 65.1768 147.639C65.1241 144.839 61.6545 145.617 59.0618 144.228C57.7513 143.527 57.127 141.829 57.2221 139.757H52.415C52.415 139.757 51.7033 145.103 51.8219 147.162Z" fill="#CBD1D1"/>
<path fill-rule="evenodd" clip-rule="evenodd" d="M51.8103 147.075C51.8103 147.075 53.0517 147.721 55.2661 147.407C56.8296 147.185 57.164 147.651 59.0614 147.931C60.9593 148.21 64.5444 147.896 65.1063 147.477C65.3175 148.036 64.931 148.525 64.931 148.525C64.931 148.525 64.1579 148.831 62.4706 148.944C61.4327 149.013 59.5052 149.092 58.5813 148.688C57.6676 147.989 55.8986 147.721 55.6526 148.566C53.6494 149.048 51.8921 148.42 51.8921 148.42L51.8103 147.075Z" fill="#2B0849"/>
<path fill-rule="evenodd" clip-rule="evenodd" d="M55.5293 140.072H57.1113C57.1113 140.072 57.0586 143.478 59.4305 144.421C57.0581 144.735 55.0549 143.251 55.5293 140.072Z" fill="#A4AABA"/>
<path fill-rule="evenodd" clip-rule="evenodd" d="M29.5565 138.221C29.5565 138.221 28.4792 141.989 27.2634 144.474C26.3441 146.352 25.1032 148.281 30.0576 148.281C33.4566 148.281 34.6351 148.037 33.8529 144.928C33.0706 141.818 33.9889 138.221 33.9889 138.221H29.5565Z" fill="#CBD1D1"/>
<path fill-rule="evenodd" clip-rule="evenodd" d="M26.4549 147.058C26.4549 147.058 27.5271 147.652 29.8463 147.652C32.9565 147.652 34.0639 146.814 34.0639 146.814C34.0639 146.814 34.3717 147.38 33.7474 147.914C33.2397 148.349 31.9083 148.723 29.969 148.7C27.8497 148.675 26.9872 148.412 26.525 148.106C26.1032 147.827 26.1737 147.303 26.4549 147.058Z" fill="#2B0849"/>
<path fill-rule="evenodd" clip-rule="evenodd" d="M30.0047 139.187C30.0047 139.187 30.0216 139.959 29.8441 140.676C29.6657 141.398 29.293 142.254 29.2664 142.78C29.2367 143.365 31.5861 143.583 31.9021 142.797C32.2191 142.011 32.5637 139.531 32.8802 139.112C33.1967 138.693 30.3733 138.035 30.0047 139.188" fill="#A4AABA"/>
<path fill-rule="evenodd" clip-rule="evenodd" d="M51.0908 141.327L57.9308 141.374C57.9308 141.374 58.5945 113.669 58.8782 108.647C59.1615 103.625 60.8088 86.6108 59.3905 76.5675L52.9754 76.2402L41.293 76.6366C41.293 76.6366 41.0711 78.652 40.682 81.706C40.6498 81.9581 40.3333 82.1344 40.2991 82.3996C40.2607 82.6969 40.5153 83.0877 40.4627 83.3987C39.254 90.5536 37.2022 100.221 35.992 107.118C35.9327 107.457 35.3611 107.631 35.2465 108.486C35.2261 108.639 35.3544 109.26 35.3038 109.398C31.7897 118.923 29.7057 133.709 28.0042 140.845L35.4725 140.838C35.4725 140.838 36.5958 136.483 37.533 132.215C38.9702 125.666 49.3494 89.0159 49.3494 89.0159L50.8914 88.7511L51.4247 112.304C51.4247 112.304 51.3102 112.931 51.597 113.331C51.8833 113.73 51.3107 113.902 51.3966 114.471L51.597 115.383C51.597 115.383 51.3674 119.03 51.1379 121.425C50.9088 123.818 51.0908 141.327 51.0908 141.327Z" fill="#7BB2F9"/>
<path d="M54.5166 114.206C54.5166 114.206 55.9349 113.642 57.637 112.232M39.0374 112.419C39.6269 112.467 41.1019 111.393 42.5934 109.911L39.0374 112.419Z" stroke="#648BD8" stroke-width="1.051" stroke-linecap="round" stroke-linejoin="round"/>
<path d="M54.9844 112.659C54.9844 112.659 56.4022 112.095 58.1042 110.686" stroke="#648BD8" stroke-linecap="round" stroke-linejoin="round"/>
<path d="M28.8293 139.245H35.6346M38.3495 114.015C38.3495 114.015 39.6901 113.714 41.6754 112.305L38.3495 114.015ZM44.1219 76.8513C43.9839 78.4296 44.2753 81.1833 41.905 81.4872L44.1219 76.8513ZM53.118 75.96C53.118 75.96 53.1743 83.0803 52.457 83.6154C51.3224 84.461 50.9282 84.6033 50.9282 84.6033L53.118 75.96ZM51.1573 76.2435C51.1573 76.2435 51.1752 82.7886 50.5458 88.6309L51.1573 76.2435ZM48.0297 89.1879C48.0297 89.1879 51.7171 88.3423 52.8517 88.3423L48.0297 89.1879ZM38.1297 104.407C37.9714 105.181 37.8045 105.954 37.6291 106.724C37.6291 106.724 36.8837 107.655 37.1132 108.643C37.3428 109.631 36.629 109.682 34.5645 116.446C33.6973 119.287 32.2688 125.893 31.3188 130.47L31.2007 131.039L38.1297 104.407ZM38.8347 100.315C38.6905 101.121 38.5402 101.926 38.3838 102.73L38.8347 100.315ZM42.3636 77.1557L41.7521 82.4746C41.7521 82.4746 41.1912 82.5508 41.4965 83.6149C41.5543 84.2989 40.1293 91.6311 38.848 99.0782L42.3636 77.1557Z" stroke="#648BD8" stroke-width="1.051" stroke-linecap="round" stroke-linejoin="round"/>
<path fill-rule="evenodd" clip-rule="evenodd" d="M59.5685 75.1167C59.5685 75.1167 50.8526 73.5394 41.2169 75.2183C41.2976 76.4958 41.2153 77.3272 41.2153 77.3272C41.2153 77.3272 48.7246 75.8952 59.4529 77.1686C59.5818 75.9719 59.5685 75.1167 59.5685 75.1167Z" fill="#192064"/>
<path fill-rule="evenodd" clip-rule="evenodd" d="M54.4971 76.6133L54.4986 74.1178C54.4994 74.0109 54.4583 73.908 54.3841 73.8307C54.3098 73.7534 54.2083 73.7078 54.1008 73.7036C52.8533 73.6574 51.5107 73.6487 50.0944 73.6965C49.9863 73.7003 49.8839 73.7456 49.8087 73.8228C49.7335 73.9 49.6913 74.0032 49.691 74.1106L49.6895 76.6037C49.6892 76.6588 49.7001 76.7133 49.7215 76.7642C49.7429 76.815 49.7744 76.861 49.814 76.8996C49.8536 76.9381 49.9006 76.9683 49.9522 76.9885C50.0038 77.0086 50.0589 77.0182 50.1143 77.0168C51.3338 76.9863 52.657 76.9843 54.0666 77.0255C54.1222 77.0273 54.1777 77.018 54.2297 76.9982C54.2817 76.9784 54.3292 76.9484 54.3693 76.91C54.4094 76.8716 54.4414 76.8257 54.4634 76.7748C54.4853 76.7239 54.4968 76.6692 54.4971 76.6138" fill="white"/>
<path fill-rule="evenodd" clip-rule="evenodd" d="M53.9271 76.1398L53.9281 74.5767C53.9287 74.4918 53.896 74.4101 53.8369 74.3488C53.7778 74.2875 53.697 74.2515 53.6116 74.2484C52.6122 74.2158 51.6119 74.2142 50.6124 74.2434C50.5263 74.246 50.4446 74.2817 50.3845 74.3431C50.3244 74.4044 50.2906 74.4865 50.2903 74.5721V76.1332C50.29 76.1767 50.2985 76.2198 50.3153 76.26C50.332 76.3001 50.3567 76.3365 50.3879 76.367C50.4191 76.3976 50.4561 76.4215 50.4968 76.4376C50.5374 76.4536 50.5809 76.4614 50.6247 76.4605C51.612 76.4388 52.5998 76.4407 53.5871 76.4661C53.7722 76.4711 53.9271 76.3238 53.9271 76.1398Z" fill="#192064"/>
<path d="M51.7688 88.7075L52.228 111.393C52.228 111.393 52.5721 112.191 52.1129 112.761C51.6543 113.331 53.3748 113.103 52.5721 113.901C51.7693 114.698 53.0307 114.471 52.5721 115.611C52.2673 116.367 52.0638 126.333 52.0117 133.47M51.3992 139.752H57.7074H51.3992ZM51.9989 137.27C52.002 138.991 52.0204 140.212 52.0557 140.576L51.9989 137.27ZM52.0066 134.23C52.0023 134.965 51.9997 135.699 51.9989 136.434L52.0066 134.23Z" stroke="#648BD8" stroke-width="1.051" stroke-linecap="round" stroke-linejoin="round"/>
<path fill-rule="evenodd" clip-rule="evenodd" d="M24.103 42.1918C24.103 42.1918 23.8392 45.2636 27.796 45.0131C33.5225 44.6513 32.5091 40.2643 43.922 34.0089C43.5202 32.6328 42.6709 31.5981 42.6709 31.5981C42.6709 31.5981 37.012 33.1785 31.124 35.6868C27.6646 37.1605 24.2753 38.9146 24.103 42.1918ZM53.545 46.069L54.0261 43.3392L49.4838 37.5309L46.9085 40.2608L46.0188 44.2417C46.0119 44.2712 46.0134 44.3021 46.0232 44.3308C46.0329 44.3595 46.0506 44.385 46.0741 44.4043C46.5674 44.8108 49.3974 46.9517 53.4095 46.2052C53.4432 46.1987 53.4742 46.1823 53.4983 46.158C53.5224 46.1336 53.5385 46.1026 53.5445 46.069" fill="#FFC6A0"/>
<path fill-rule="evenodd" clip-rule="evenodd" d="M48.1672 40.1385C48.1672 40.1385 45.8496 38.6887 46.9238 36.6551C47.7536 35.0849 49.2312 37.2308 49.2312 37.2308C49.2312 37.2308 49.4971 35.3801 50.827 35.3801C51.0928 34.8516 51.6251 33.2651 51.6251 33.2651C51.6251 33.2651 57.4768 34.5869 58.5408 34.8511C58.5408 37.4951 57.3627 44.7216 54.5323 44.9437C49.9859 45.3009 48.1672 40.1385 48.1672 40.1385Z" fill="#FFC6A0"/>
<path fill-rule="evenodd" clip-rule="evenodd" d="M58.3582 37.1198C59.6881 36.0623 60.1324 32.1795 60.1324 32.1795C60.1324 32.1795 58.8649 31.9305 56.7375 31.1378C54.3431 30.0803 50.194 28.7255 47.8002 31.6337C42.857 33.2715 46.752 41.707 46.752 41.707L48.1392 40.1718C48.1392 40.1718 46.1272 38.5015 47.0757 36.9994C48.1852 35.2401 49.0799 37.5446 49.0799 37.5446C49.0799 37.5446 49.4056 36.3317 50.9108 35.8464C51.0923 35.4856 51.4405 34.4875 51.643 33.89C51.6864 33.7611 51.7767 33.6529 51.8961 33.5867C52.0156 33.5206 52.1556 33.5011 52.2888 33.5322C53.5158 33.8158 56.7252 34.5582 58.0949 34.8849C58.3618 34.9484 58.5403 35.1974 58.5142 35.4693L58.3582 37.1198Z" fill="#520038"/>
<path fill-rule="evenodd" clip-rule="evenodd" d="M53.8093 38.45C53.7566 38.7599 53.5117 38.9774 53.2622 38.9358C53.0122 38.8936 52.8526 38.6085 52.9053 38.2985C52.958 37.9886 53.2029 37.7711 53.4524 37.8127C53.7019 37.8544 53.8614 38.14 53.8093 38.45ZM57.4675 39.2783C57.4149 39.5882 57.17 39.8057 56.9204 39.7641C56.6709 39.7219 56.5114 39.4368 56.5636 39.1268C56.6162 38.8169 56.8611 38.5994 57.1106 38.641C57.3602 38.6827 57.5197 38.9678 57.4675 39.2783Z" fill="#552950"/>
<path d="M56.444 37.8281L55.9858 38.6463L55.8335 40.8603H54.6943" stroke="#DB836E" stroke-width="1.118" stroke-linecap="round" stroke-linejoin="round"/>
<path d="M56.8101 37.6455C56.8101 37.6455 57.7253 37.2816 58.0913 37.9184" stroke="#5C2552" stroke-width="1.118" stroke-linecap="round" stroke-linejoin="round"/>
<path d="M47.3718 37.5447C47.3718 37.5447 47.6157 36.9786 47.9409 37.1809C48.2666 37.3831 48.5923 37.9091 48.2262 38.1921C47.8596 38.4746 48.3075 39.0407 48.3075 39.0407" stroke="#DB836E" stroke-width="1.118" stroke-linecap="round" stroke-linejoin="round"/>
<path d="M52.9453 36.8574C52.9453 36.8574 53.881 37.423 55.0605 37.3422" stroke="#5C2552" stroke-width="1.118" stroke-linecap="round" stroke-linejoin="round"/>
<path d="M48.5513 41.062C48.5513 41.062 49.7313 44.8224 53.8809 44.9438M53.1488 41.3451C53.1488 41.3451 54.2874 41.9513 55.3862 41.9513L53.1488 41.3451ZM53.637 42.6388C53.637 42.6388 54.1248 42.8411 54.4096 42.8004L53.637 42.6388Z" stroke="#DB836E" stroke-width="1.118" stroke-linecap="round" stroke-linejoin="round"/>
<path d="M35.4148 41.7988C35.4148 41.7988 35.0436 46.5156 31.2202 49.0178M41.7803 45.2187C41.7803 45.2187 42.0104 48.0883 39.2571 51.7166L41.7803 45.2187Z" stroke="#E4EBF7" stroke-width="1.101" stroke-linecap="round" stroke-linejoin="round"/>
<path d="M66.299 62.2324C66.299 62.2324 63.6035 65.9943 61.4817 67.7043" stroke="#E4EBF7" stroke-width="1.051" stroke-linecap="round" stroke-linejoin="round"/>
<path d="M61.1356 54.3374C61.1356 54.3374 61.3667 56.556 60.0481 70.63" stroke="#E4EBF7" stroke-width="1.101" stroke-linecap="round" stroke-linejoin="round"/>
<path fill-rule="evenodd" clip-rule="evenodd" d="M76.8434 76.6476H51.3623C51.2254 76.6476 51.094 76.5935 50.9972 76.4973C50.9004 76.401 50.8459 76.2705 50.8459 76.1344V60.0318C50.8459 59.7487 51.0771 59.5186 51.3623 59.5186H76.8434C77.1287 59.5186 77.3598 59.7487 77.3598 60.0318V76.1344C77.3598 76.2705 77.3054 76.401 77.2085 76.4973C77.1117 76.5935 76.9803 76.6476 76.8434 76.6476Z" fill="#F2D7AD"/>
<path fill-rule="evenodd" clip-rule="evenodd" d="M76.9775 76.6476H66.8218V59.519H77.4484V76.1796C77.4484 76.3036 77.3988 76.4225 77.3106 76.5102C77.2224 76.5978 77.1027 76.6471 76.978 76.6471" fill="#F4D19D"/>
<path fill-rule="evenodd" clip-rule="evenodd" d="M63.3077 64.7892H47.6434C47.5949 64.7893 47.5472 64.7761 47.5057 64.7512C47.4641 64.7262 47.4303 64.6903 47.4079 64.6475C47.3854 64.6047 47.3753 64.5566 47.3785 64.5085C47.3817 64.4603 47.3982 64.414 47.4261 64.3745L50.6882 59.7437C50.7868 59.6029 50.9489 59.519 51.1227 59.519H67.0197L63.3077 64.7892Z" fill="#F2D7AD"/>
<path fill-rule="evenodd" clip-rule="evenodd" d="M63.3765 65.0688H50.8811V64.805H63.2384L66.911 59.5913L67.1278 59.7427L63.3765 65.0688Z" fill="#CC9B6E"/>
<path fill-rule="evenodd" clip-rule="evenodd" d="M81.0717 64.7892H71.5265C71.3619 64.7892 71.1995 64.7511 71.0523 64.6778C70.9051 64.6046 70.777 64.4983 70.6783 64.3674L67.0195 59.519H77.2274C77.4779 59.519 77.7131 59.6359 77.8634 59.8351L81.2839 64.3679C81.3134 64.4071 81.3314 64.4536 81.3358 64.5024C81.3402 64.5511 81.3308 64.6001 81.3088 64.6439C81.2868 64.6877 81.253 64.7245 81.2111 64.7502C81.1692 64.776 81.121 64.7896 81.0717 64.7897" fill="#F4D19D"/>
<path fill-rule="evenodd" clip-rule="evenodd" d="M80.841 65.0855H70.9302L66.9131 59.7625L67.1252 59.605L71.0622 64.8218H80.841V65.0855ZM66.8865 76.3697L66.8701 72.2145L67.1355 72.2135L67.1518 76.3687L66.8865 76.3697Z" fill="#CC9B6E"/>
<path fill-rule="evenodd" clip-rule="evenodd" d="M66.8646 70.8295L66.8237 59.9478L67.0891 59.9468L67.13 70.8285L66.8646 70.8295ZM57.3368 71.4134L57.0822 71.3407L57.8384 68.7151L58.093 68.7878L57.3368 71.4134ZM55.5785 71.4785L54.2087 69.987L55.5713 68.242L55.7809 68.4036L54.5554 69.9733L55.7743 71.3006L55.5785 71.4785ZM59.7557 71.4785L59.5599 71.3006L60.7783 69.9733L59.5527 68.4036L59.7623 68.242L61.1249 69.987L59.7557 71.4785Z" fill="#CC9B6E"/>
<path fill-rule="evenodd" clip-rule="evenodd" d="M79.0357 66.8192L77.4436 65.8232L77.463 67.6089L76.9297 67.6557C76.0698 67.7141 75.0717 67.7725 74.4812 67.7725C73.5087 67.7725 73.1043 68.92 75.6214 69.1182L74.269 68.8153C74.269 68.8153 73.1605 69.4845 74.5267 69.9841C74.5267 69.9841 73.7188 70.6025 74.8135 71.2951C74.5149 73.0757 77.4962 73.3572 78.4549 73.1194C79.4141 72.8806 80.6192 71.9207 80.7491 70.4973C80.8922 68.9296 80.294 67.737 79.0362 66.8192" fill="#FFC6A0"/>
<path d="M78.7137 67.6758C78.7137 67.6758 75.379 67.9146 74.4393 67.8648C73.5006 67.815 73.4658 68.9777 75.6454 69.0153C77.5571 69.0915 78.4324 68.9929 78.4324 68.9929" stroke="#DB836E" stroke-width="1.051" stroke-linecap="round" stroke-linejoin="round"/>
<path d="M74.3544 68.8447C73.4085 69.5287 74.6412 70.0414 74.6412 70.0414C74.6412 70.0414 76.4195 70.4978 78.0822 70.355" stroke="#DB836E" stroke-width="1.051" stroke-linecap="round" stroke-linejoin="round"/>
<path d="M27.1514 45.1688C28.9577 44.9975 31.4579 44.5346 34.0957 41.2285M77.7954 71.8086C77.7954 71.8086 74.5845 71.865 74.3544 70.7252C74.2404 70.0412 74.5845 70.0127 74.5845 70.0127L77.7954 71.8086ZM74.8422 71.3807C74.8422 71.3807 74.2782 72.9865 77.6236 73.1761L74.8422 71.3807ZM77.4436 65.8235V67.5903V65.8235Z" stroke="#DB836E" stroke-width="1.051" stroke-linecap="round" stroke-linejoin="round"/>
<path fill-rule="evenodd" clip-rule="evenodd" d="M86.3221 125.983C85.4208 125.983 84.5563 125.627 83.919 124.993C83.2816 124.36 82.9236 123.501 82.9236 122.605V88.8294C82.9236 88.3858 83.0115 87.9466 83.1823 87.5368C83.3531 87.127 83.6034 86.7546 83.919 86.441C84.2346 86.1273 84.6092 85.8785 85.0216 85.7088C85.4339 85.539 85.8758 85.4517 86.3221 85.4517C86.7684 85.4517 87.2103 85.539 87.6227 85.7088C88.035 85.8785 88.4096 86.1273 88.7252 86.441C89.0408 86.7546 89.2911 87.127 89.4619 87.5368C89.6327 87.9466 89.7206 88.3858 89.7206 88.8294V122.605C89.7206 123.501 89.3626 124.36 88.7252 124.993C88.0879 125.627 87.2235 125.983 86.3221 125.983Z" fill="#5BA02E"/>
<path fill-rule="evenodd" clip-rule="evenodd" d="M90.4 125.645C89.4987 125.644 88.6344 125.288 87.9972 124.655C87.36 124.022 87.002 123.163 87.002 122.267V105.38C86.9964 104.933 87.0803 104.489 87.2486 104.074C87.4169 103.66 87.6663 103.283 87.9824 102.964C88.2985 102.646 88.675 102.394 89.0901 102.222C89.5051 102.049 89.9504 101.96 90.4002 101.96C90.85 101.96 91.2954 102.049 91.7104 102.222C92.1255 102.394 92.5019 102.646 92.818 102.964C93.1342 103.283 93.3836 103.66 93.5519 104.074C93.7202 104.489 93.804 104.933 93.7985 105.38V122.267C93.7985 123.163 93.4404 124.022 92.8031 124.655C92.1658 125.289 91.3013 125.645 90.4 125.645Z" fill="#92C110"/>
<path fill-rule="evenodd" clip-rule="evenodd" d="M95.4619 149H81.3897C80.9576 149 80.5431 148.829 80.2375 148.526C79.9319 148.222 79.7603 147.81 79.7603 147.38V123.937C79.7603 123.507 79.9319 123.095 80.2375 122.792C80.5431 122.488 80.9576 122.317 81.3897 122.317H95.4624C95.8946 122.317 96.309 122.488 96.6146 122.792C96.9202 123.095 97.0919 123.507 97.0919 123.937V147.38C97.0919 147.81 96.9202 148.222 96.6146 148.526C96.309 148.829 95.8946 149 95.4624 149" fill="#F2D7AD"/>
<path d="M45.6299 45.2676C45.6299 45.2676 49.6057 48.0035 54.1173 46.7118" stroke="#E4EBF7" stroke-width="1.101" stroke-linecap="round" stroke-linejoin="round"/>
</svg>
