<svg width="32" height="32" viewBox="0 0 32 32" fill="none" xmlns="http://www.w3.org/2000/svg">
<path d="M6.3 0H0.7C0.313389 0 0 0.313389 0 0.7V6.3C0 6.68661 0.313389 7 0.7 7H6.3C6.68661 7 7 6.68661 7 6.3V0.7C7 0.313389 6.68661 0 6.3 0Z" fill="currentColor"/>
<path d="M14.5998 0H8.9998C8.61319 0 8.2998 0.313389 8.2998 0.7V6.3C8.2998 6.68661 8.61319 7 8.9998 7H14.5998C14.9864 7 15.2998 6.68661 15.2998 6.3V0.7C15.2998 0.313389 14.9864 0 14.5998 0Z" fill="currentColor"/>
<path d="M22.8996 0H17.2996C16.913 0 16.5996 0.313389 16.5996 0.7V6.3C16.5996 6.68661 16.913 7 17.2996 7H22.8996C23.2862 7 23.5996 6.68661 23.5996 6.3V0.7C23.5996 0.313389 23.2862 0 22.8996 0Z" fill="currentColor"/>
<path d="M31.1994 0H25.5994C25.2128 0 24.8994 0.313389 24.8994 0.7V6.3C24.8994 6.68661 25.2128 7 25.5994 7H31.1994C31.586 7 31.8994 6.68661 31.8994 6.3V0.7C31.8994 0.313389 31.586 0 31.1994 0Z" fill="currentColor"/>
<path d="M6.3 8.2998H0.7C0.313389 8.2998 0 8.61319 0 8.9998V14.5998C0 14.9864 0.313389 15.2998 0.7 15.2998H6.3C6.68661 15.2998 7 14.9864 7 14.5998V8.9998C7 8.61319 6.68661 8.2998 6.3 8.2998Z" fill="currentColor"/>
<path d="M14.5998 8.2998H8.9998C8.61319 8.2998 8.2998 8.61319 8.2998 8.9998V14.5998C8.2998 14.9864 8.61319 15.2998 8.9998 15.2998H14.5998C14.9864 15.2998 15.2998 14.9864 15.2998 14.5998V8.9998C15.2998 8.61319 14.9864 8.2998 14.5998 8.2998Z" fill="currentColor"/>
<path d="M22.8996 8.2998H17.2996C16.913 8.2998 16.5996 8.61319 16.5996 8.9998V14.5998C16.5996 14.9864 16.913 15.2998 17.2996 15.2998H22.8996C23.2862 15.2998 23.5996 14.9864 23.5996 14.5998V8.9998C23.5996 8.61319 23.2862 8.2998 22.8996 8.2998Z" fill="currentColor"/>
<path d="M31.1994 8.2998H25.5994C25.2128 8.2998 24.8994 8.61319 24.8994 8.9998V14.5998C24.8994 14.9864 25.2128 15.2998 25.5994 15.2998H31.1994C31.586 15.2998 31.8994 14.9864 31.8994 14.5998V8.9998C31.8994 8.61319 31.586 8.2998 31.1994 8.2998Z" fill="currentColor"/>
<path d="M6.3 16.5996H0.7C0.313389 16.5996 0 16.913 0 17.2996V22.8996C0 23.2862 0.313389 23.5996 0.7 23.5996H6.3C6.68661 23.5996 7 23.2862 7 22.8996V17.2996C7 16.913 6.68661 16.5996 6.3 16.5996Z" fill="currentColor"/>
<path d="M14.5998 16.5996H8.9998C8.61319 16.5996 8.2998 16.913 8.2998 17.2996V22.8996C8.2998 23.2862 8.61319 23.5996 8.9998 23.5996H14.5998C14.9864 23.5996 15.2998 23.2862 15.2998 22.8996V17.2996C15.2998 16.913 14.9864 16.5996 14.5998 16.5996Z" fill="currentColor"/>
<path d="M22.8996 16.5996H17.2996C16.913 16.5996 16.5996 16.913 16.5996 17.2996V22.8996C16.5996 23.2862 16.913 23.5996 17.2996 23.5996H22.8996C23.2862 23.5996 23.5996 23.2862 23.5996 22.8996V17.2996C23.5996 16.913 23.2862 16.5996 22.8996 16.5996Z" fill="currentColor"/>
<path d="M31.1994 16.5996H25.5994C25.2128 16.5996 24.8994 16.913 24.8994 17.2996V22.8996C24.8994 23.2862 25.2128 23.5996 25.5994 23.5996H31.1994C31.586 23.5996 31.8994 23.2862 31.8994 22.8996V17.2996C31.8994 16.913 31.586 16.5996 31.1994 16.5996Z" fill="currentColor"/>
<path d="M6.3 24.8994H0.7C0.313389 24.8994 0 25.2128 0 25.5994V31.1994C0 31.586 0.313389 31.8994 0.7 31.8994H6.3C6.68661 31.8994 7 31.586 7 31.1994V25.5994C7 25.2128 6.68661 24.8994 6.3 24.8994Z" fill="currentColor"/>
<path d="M14.5998 24.8994H8.9998C8.61319 24.8994 8.2998 25.2128 8.2998 25.5994V31.1994C8.2998 31.586 8.61319 31.8994 8.9998 31.8994H14.5998C14.9864 31.8994 15.2998 31.586 15.2998 31.1994V25.5994C15.2998 25.2128 14.9864 24.8994 14.5998 24.8994Z" fill="currentColor"/>
<path d="M22.8996 24.8994H17.2996C16.913 24.8994 16.5996 25.2128 16.5996 25.5994V31.1994C16.5996 31.586 16.913 31.8994 17.2996 31.8994H22.8996C23.2862 31.8994 23.5996 31.586 23.5996 31.1994V25.5994C23.5996 25.2128 23.2862 24.8994 22.8996 24.8994Z" fill="currentColor"/>
<path d="M31.1994 24.8994H25.5994C25.2128 24.8994 24.8994 25.2128 24.8994 25.5994V31.1994C24.8994 31.586 25.2128 31.8994 25.5994 31.8994H31.1994C31.586 31.8994 31.8994 31.586 31.8994 31.1994V25.5994C31.8994 25.2128 31.586 24.8994 31.1994 24.8994Z" fill="currentColor"/>
</svg>
