<svg width="32" height="32" viewBox="0 0 32 32" fill="none" xmlns="http://www.w3.org/2000/svg">
<path d="M8.57978 0H1.15947C0.647191 0 0.231934 0.415257 0.231934 0.927538V8.34784C0.231934 8.86012 0.647191 9.27538 1.15947 9.27538H8.57978C9.09206 9.27538 9.50731 8.86012 9.50731 8.34784V0.927538C9.50731 0.415257 9.09206 0 8.57978 0Z" fill="currentColor"/>
<path d="M19.7101 0H12.2898C11.7776 0 11.3623 0.415257 11.3623 0.927538V8.34784C11.3623 8.86012 11.7776 9.27538 12.2898 9.27538H19.7101C20.2224 9.27538 20.6377 8.86012 20.6377 8.34784V0.927538C20.6377 0.415257 20.2224 0 19.7101 0Z" fill="currentColor"/>
<path d="M8.57978 11.1304H1.15947C0.647191 11.1304 0.231934 11.5456 0.231934 12.0579V19.4782C0.231934 19.9905 0.647191 20.4057 1.15947 20.4057H8.57978C9.09206 20.4057 9.50731 19.9905 9.50731 19.4782V12.0579C9.50731 11.5456 9.09206 11.1304 8.57978 11.1304Z" fill="currentColor"/>
<path d="M19.7101 11.1304H12.2898C11.7776 11.1304 11.3623 11.5456 11.3623 12.0579V19.4782C11.3623 19.9905 11.7776 20.4057 12.2898 20.4057H19.7101C20.2224 20.4057 20.6377 19.9905 20.6377 19.4782V12.0579C20.6377 11.5456 20.2224 11.1304 19.7101 11.1304Z" fill="currentColor"/>
<path d="M30.8408 0H23.4205C22.9082 0 22.4929 0.415257 22.4929 0.927538V8.34784C22.4929 8.86012 22.9082 9.27538 23.4205 9.27538H30.8408C31.3531 9.27538 31.7683 8.86012 31.7683 8.34784V0.927538C31.7683 0.415257 31.353 0 30.8408 0Z" fill="currentColor"/>
<path d="M30.8408 11.1304H23.4205C22.9082 11.1304 22.4929 11.5456 22.4929 12.0579V19.4782C22.4929 19.9905 22.9082 20.4057 23.4205 20.4057H30.8408C31.3531 20.4057 31.7683 19.9905 31.7683 19.4782V12.0579C31.7683 11.5456 31.353 11.1304 30.8408 11.1304Z" fill="currentColor"/>
<path d="M8.57978 22.7246H1.15947C0.647191 22.7246 0.231934 23.1399 0.231934 23.6521V31.0724C0.231934 31.5847 0.647191 32 1.15947 32H8.57978C9.09206 32 9.50731 31.5847 9.50731 31.0724V23.6521C9.50731 23.1399 9.09206 22.7246 8.57978 22.7246Z" fill="currentColor"/>
<path d="M19.7101 22.7246H12.2898C11.7776 22.7246 11.3623 23.1399 11.3623 23.6521V31.0724C11.3623 31.5847 11.7776 32 12.2898 32H19.7101C20.2224 32 20.6377 31.5847 20.6377 31.0724V23.6521C20.6377 23.1399 20.2224 22.7246 19.7101 22.7246Z" fill="currentColor"/>
<path d="M30.8408 22.7246H23.4205C22.9082 22.7246 22.4929 23.1399 22.4929 23.6521V31.0724C22.4929 31.5847 22.9082 32 23.4205 32H30.8408C31.3531 32 31.7683 31.5847 31.7683 31.0724V23.6521C31.7683 23.1399 31.353 22.7246 30.8408 22.7246Z" fill="currentColor"/>
</svg>
