<svg width="250" height="152" viewBox="0 0 250 152" fill="none" xmlns="http://www.w3.org/2000/svg">
<g clip-path="url(#clip0_149404_203941)">
<path d="M52.4095 84.7598L117.057 20.1099L105.579 8.63588C102.893 5.94918 99.7039 3.81794 96.1942 2.36386C92.6844 0.909792 88.9225 0.161377 85.1235 0.161377C81.3244 0.161377 77.5626 0.909792 74.0528 2.36386C70.5431 3.81794 67.3541 5.94918 64.6682 8.63588L0.0175781 73.2822L11.4953 84.7563C16.9204 90.1822 24.2788 93.2308 31.9517 93.2314C39.6245 93.2321 46.9834 90.1848 52.4095 84.7598Z" fill="url(#paint0_linear_149404_203941)"/>
<path d="M154.763 142.579L197.288 100.054L185.81 88.5763C180.385 83.1509 173.026 80.103 165.353 80.103C157.68 80.103 150.322 83.1509 144.896 88.5763L102.356 131.101L113.834 142.579C116.52 145.266 119.71 147.397 123.22 148.851C126.73 150.305 130.492 151.054 134.291 151.054C138.091 151.054 141.853 150.305 145.363 148.851C148.873 147.397 152.062 145.266 154.748 142.579H154.763Z" fill="url(#paint1_linear_149404_203941)"/>
<path d="M250.276 72.943L238.802 84.4065C236.116 87.0928 232.927 89.2237 229.417 90.6775C225.908 92.1313 222.146 92.8795 218.347 92.8795C214.548 92.8795 210.786 92.1313 207.277 90.6775C203.767 89.2237 200.578 87.0928 197.892 84.4065L165.349 51.896L102.448 114.797C99.7614 117.483 96.5724 119.614 93.0626 121.068C89.5529 122.521 85.7912 123.27 81.9923 123.27C78.1933 123.27 74.4316 122.521 70.9219 121.068C67.4121 119.614 64.2231 117.483 61.5369 114.797L50.0557 103.323L144.895 8.47334C150.321 3.04794 157.68 0 165.353 0C173.025 0 180.384 3.04794 185.81 8.47334L250.276 72.943Z" fill="url(#paint2_linear_149404_203941)"/>
<path d="M189.428 12.0776L94.5814 106.931C91.8952 109.617 88.7062 111.748 85.1964 113.201C81.6867 114.655 77.925 115.404 74.126 115.404C70.3271 115.404 66.5654 114.655 63.0557 113.201C59.5459 111.748 56.3569 109.617 53.6707 106.931L50.0557 103.326L144.616 8.75592C156.525 -3.15281 174.689 -2.66514 186.191 8.83721L189.428 12.0776Z" fill="url(#paint3_linear_149404_203941)"/>
<path d="M189.552 92.3221L147.048 134.815C144.362 137.502 141.173 139.632 137.664 141.086C134.155 142.54 130.393 143.288 126.594 143.288C122.796 143.288 119.034 142.54 115.525 141.086C112.016 139.632 108.827 137.502 106.141 134.815L102.392 131.077L144.896 88.5763C147.581 85.8893 150.77 83.7578 154.279 82.3035C157.789 80.8492 161.551 80.1006 165.35 80.1006C169.148 80.1006 172.91 80.8492 176.42 82.3035C179.929 83.7578 183.118 85.8893 185.803 88.5763L189.552 92.3221Z" fill="url(#paint4_linear_149404_203941)"/>
<path d="M109.569 12.6502L44.9003 77.2754C42.2146 79.9625 39.0257 82.0941 35.5159 83.5484C32.0061 85.0028 28.2442 85.7513 24.445 85.7513C20.6458 85.7513 16.8838 85.0028 13.374 83.5484C9.86423 82.0941 6.67538 79.9625 3.98966 77.2754L0 73.2858L64.6506 8.63587C67.3368 5.9496 70.5258 3.81873 74.0355 2.36492C77.5453 0.911112 81.307 0.162842 85.106 0.162842C88.9049 0.162842 92.6666 0.911112 96.1763 2.36492C99.6861 3.81873 102.875 5.9496 105.561 8.63587L107.123 10.1978L109.569 12.6502Z" fill="url(#paint5_linear_149404_203941)"/>
</g>
<defs>
<linearGradient id="paint0_linear_149404_203941" x1="0.0175781" y1="46.6943" x2="117.057" y2="46.6943" gradientUnits="userSpaceOnUse">
<stop stop-color="#177DDC"/>
<stop offset="1" stop-color="#006DBF"/>
</linearGradient>
<linearGradient id="paint1_linear_149404_203941" x1="102.371" y1="115.578" x2="197.288" y2="115.578" gradientUnits="userSpaceOnUse">
<stop stop-color="#177DDC"/>
<stop offset="1" stop-color="#006DBF"/>
</linearGradient>
<linearGradient id="paint2_linear_149404_203941" x1="50.0521" y1="61.635" x2="250.276" y2="61.635" gradientUnits="userSpaceOnUse">
<stop stop-color="#177DDC"/>
<stop offset="1" stop-color="#006DBF"/>
</linearGradient>
<linearGradient id="paint3_linear_149404_203941" x1="63.954" y1="102.531" x2="166.747" y2="19.9532" gradientUnits="userSpaceOnUse">
<stop stop-color="#3CA2EF"/>
<stop offset="1" stop-color="#0973CA"/>
</linearGradient>
<linearGradient id="paint4_linear_149404_203941" x1="102.392" y1="111.694" x2="189.552" y2="111.694" gradientUnits="userSpaceOnUse">
<stop stop-color="#3CA2EF"/>
<stop offset="1" stop-color="#006DBF"/>
</linearGradient>
<linearGradient id="paint5_linear_149404_203941" x1="0.180223" y1="74.5261" x2="102.112" y2="15.6034" gradientUnits="userSpaceOnUse">
<stop stop-color="#3CA2EF"/>
<stop offset="1" stop-color="#0973CA"/>
</linearGradient>
<clipPath id="clip0_149404_203941">
<rect width="250" height="152" fill="white"/>
</clipPath>
</defs>
</svg>
