<svg width="570" height="175" viewBox="0 0 570 175" fill="none" xmlns="http://www.w3.org/2000/svg">
<path d="M117.107 31.9509L45.98 103.078C42.2609 106.797 37.2166 108.886 31.957 108.886C26.6973 108.886 21.6532 106.797 17.9341 103.078L0.00560675 85.1494L71.133 14.0228C74.8521 10.3037 79.8964 8.21435 85.1561 8.21435C90.4157 8.21435 95.46 10.3037 99.1791 14.0228L117.107 31.9509Z" fill="url(#paint0_linear_149404_203975)"/>
<path d="M197.378 111.934L148.361 160.95C144.642 164.669 139.598 166.758 134.338 166.758C129.079 166.758 124.034 164.669 120.315 160.95L102.387 143.022L151.404 94.0057C153.245 92.1642 155.431 90.7034 157.837 89.7068C160.243 88.7102 162.822 88.1973 165.427 88.1973C168.031 88.1973 170.61 88.7102 173.016 89.7068C175.422 90.7034 177.608 92.1642 179.45 94.0057L197.378 111.934Z" fill="url(#paint1_linear_149404_203975)"/>
<path d="M250.404 84.8132L238.921 96.2886C236.233 98.9771 233.042 101.11 229.53 102.565C226.018 104.02 222.254 104.769 218.453 104.769C214.651 104.769 210.887 104.02 207.375 102.565C203.863 101.11 200.672 98.9771 197.984 96.2886L165.427 63.7312L102.496 126.684C97.0673 132.112 89.7048 135.161 82.0279 135.161C74.351 135.161 66.9884 132.112 61.5596 126.684L50.0615 115.201L144.955 20.3012C150.383 14.8733 157.746 11.824 165.423 11.824C173.1 11.824 180.462 14.8733 185.891 20.3012L250.404 84.8132Z" fill="url(#paint2_linear_149404_203975)"/>
<path d="M189.524 23.9104L94.5853 118.848C89.1565 124.275 81.7939 127.325 74.117 127.325C66.4401 127.325 59.0776 124.275 53.6488 118.848L50.0322 115.238L144.692 20.5874C156.612 8.66755 174.785 9.15738 186.291 20.6629L189.524 23.9104Z" fill="url(#paint3_linear_149404_203975)"/>
<path d="M189.643 104.2L147.117 146.718C141.688 152.146 134.326 155.195 126.649 155.195C118.972 155.195 111.609 152.146 106.18 146.718L102.413 142.951L144.94 100.425C147.627 97.7376 150.817 95.6059 154.329 94.1515C157.84 92.6971 161.603 91.9485 165.404 91.9485C169.205 91.9485 172.968 92.6971 176.479 94.1515C179.991 95.6059 183.181 97.7376 185.868 100.425L189.643 104.2Z" fill="url(#paint4_linear_149404_203975)"/>
<path d="M109.616 24.4829L44.93 89.1455C39.5012 94.5734 32.1386 97.6228 24.4617 97.6228C16.7848 97.6228 9.42227 94.5734 3.99347 89.1455L0 85.1522L64.6862 20.4668C67.3732 17.7774 70.5639 15.6438 74.0759 14.1881C77.588 12.7325 81.3526 11.9833 85.1544 11.9833C88.9562 11.9833 92.7207 12.7325 96.2327 14.1881C99.7448 15.6438 102.935 17.7774 105.623 20.4668L107.182 22.0265L109.616 24.4829Z" fill="url(#paint5_linear_149404_203975)"/>
<path d="M305.437 121.982C300.547 122.065 295.821 120.212 292.289 116.828C288.654 113.44 286.47 108.777 286.194 103.816L281.854 30.5558H305.098L307.404 95.0076L337.023 30.5558H362.709L318.653 121.982H305.437Z" fill="white"/>
<path d="M442.473 121.982H424.578L427.494 110.559C428.85 105.255 430.284 99.6189 431.796 93.6514C433.308 87.6839 435.149 80.3426 437.319 71.6275C433.577 77.2233 429.342 83.3791 424.615 90.095C419.889 96.811 413.959 105.202 406.826 115.269C403.654 115.286 400.574 114.2 398.114 112.198C395.654 110.195 393.966 107.4 393.338 104.29C393.158 103.522 392.738 101.387 392.08 97.886C391.422 94.3849 390.689 90.4642 389.88 86.1242C389.066 81.7943 388.062 76.3291 386.866 69.7287L383.95 81.5883C382.604 87.1138 381.17 92.9632 379.648 99.1367C378.126 105.31 376.262 112.925 374.057 121.982H352.206C352.658 120.174 353.889 115.135 355.898 106.867C357.907 98.5992 360.145 89.3919 362.612 79.2451C365.068 69.1034 368.175 56.2945 371.932 40.8182C374.499 33.9465 378.992 30.5133 385.412 30.5183H398.357L400.09 39.56C401.059 44.6484 402.154 50.3647 403.375 56.7089C404.596 63.0531 406.133 71.0624 407.986 80.737L443.837 30.5183H468.641C468.139 32.4623 466.76 38.0755 464.504 47.3583C462.249 56.641 459.737 67.0214 456.97 78.4992C454.192 89.972 450.676 104.454 446.421 121.944L442.473 121.982Z" fill="white"/>
<path d="M506.858 51.4794C506.269 51.4634 505.693 51.6554 505.231 52.0219C504.807 52.3883 504.481 52.8544 504.282 53.3781C503.875 55.0056 503.546 56.362 503.295 57.447C503.046 58.532 502.812 59.5341 502.586 60.4609C502.36 61.3876 502.202 62.0279 502.112 62.3896C502.033 62.7832 502.04 63.1893 502.134 63.5796C502.227 63.9699 502.405 64.3352 502.654 64.65C502.882 64.9537 503.18 65.1984 503.522 65.3636C503.864 65.5287 504.241 65.6095 504.621 65.5994H537.774C540.613 65.519 543.43 66.1307 545.981 67.3817C548.531 68.6327 550.739 70.4853 552.414 72.78C556.076 77.5268 557.206 82.9945 555.805 89.183C555.796 89.2548 555.773 89.3241 555.737 89.3865C555.737 89.4769 555.541 90.3058 555.156 91.8579L553.8 97.3884C553.298 99.5082 552.813 101.472 552.346 103.28C551.879 105.089 551.608 106.264 551.532 106.807C550.404 111.136 547.909 114.986 544.419 117.785C540.922 120.577 536.56 122.064 532.085 121.989H466.005C466.909 118.101 467.663 114.859 468.265 112.262C468.868 109.665 469.446 107.271 469.998 105.081C470.501 102.891 470.827 101.455 470.978 100.772H529.063C529.661 100.786 530.245 100.6 530.725 100.244C531.204 99.8875 531.55 99.3809 531.708 98.8049C532.115 97.1824 532.442 95.8287 532.688 94.7437C532.936 93.6587 533.17 92.6566 533.396 91.7299L533.871 89.8009C534.035 89.4351 534.097 89.0313 534.049 88.633C534.001 88.2348 533.846 87.8571 533.599 87.5405C533.383 87.2212 533.091 86.9608 532.749 86.7832C532.407 86.6056 532.026 86.5162 531.64 86.5233H498.291C492.143 86.5233 487.24 84.1976 483.584 79.5461C479.927 74.8947 478.799 69.4045 480.2 63.0754V62.8719L480.336 62.2616C480.6 61.2218 481.044 59.4813 481.655 57.0476C482.265 54.6139 482.853 52.2254 483.418 49.8972C483.983 47.569 484.352 46.0469 484.533 45.3236C488.376 35.4682 494.815 30.543 503.852 30.548H570C569.096 34.3831 568.327 37.5855 567.694 40.1323C567.061 42.679 566.481 45.0524 565.961 47.2148C565.442 49.3773 565.117 50.8088 564.982 51.4869H506.836L506.858 51.4794Z" fill="white"/>
<path d="M285.879 151.819V141.7H281.923V140.268H291.47V141.7H287.514V151.819H285.879Z" fill="white"/>
<path d="M294.806 151.819V143.079H296.313V145.46L296.162 144.865C296.394 144.274 296.826 143.783 297.383 143.478C298.035 143.137 298.764 142.971 299.5 142.996V144.503H299.311H299.153C298.784 144.484 298.415 144.541 298.069 144.67C297.723 144.8 297.407 144.999 297.142 145.256C296.611 145.862 296.34 146.653 296.388 147.457V151.812L294.806 151.819Z" fill="white"/>
<path d="M305.347 151.917C304.76 151.929 304.177 151.816 303.637 151.586C303.18 151.393 302.788 151.074 302.507 150.667C302.241 150.276 302.104 149.813 302.115 149.34C302.11 148.889 302.225 148.445 302.447 148.052C302.711 147.638 303.098 147.316 303.554 147.133C304.213 146.874 304.919 146.756 305.626 146.786H308.399V147.924H305.694C305.128 147.857 304.558 147.999 304.089 148.323C303.956 148.444 303.851 148.592 303.779 148.757C303.708 148.922 303.672 149.1 303.675 149.28C303.67 149.48 303.715 149.677 303.804 149.856C303.893 150.034 304.025 150.189 304.187 150.305C304.604 150.591 305.106 150.729 305.611 150.697C306.158 150.708 306.697 150.569 307.171 150.297C307.614 150.034 307.955 149.628 308.135 149.145L308.444 150.229C308.231 150.756 307.843 151.193 307.344 151.465C306.729 151.787 306.041 151.943 305.347 151.917V151.917ZM308.218 151.819V149.966L308.135 149.619V146.47C308.152 146.183 308.109 145.896 308.008 145.627C307.906 145.358 307.75 145.114 307.547 144.91C307.053 144.512 306.426 144.315 305.792 144.36C305.279 144.36 304.769 144.447 304.285 144.616C303.83 144.768 303.406 145 303.034 145.302L302.371 144.111C302.855 143.732 303.407 143.451 303.999 143.283C304.643 143.085 305.314 142.986 305.988 142.989C306.989 142.926 307.977 143.237 308.761 143.863C309.105 144.213 309.37 144.633 309.537 145.094C309.705 145.556 309.772 146.048 309.733 146.538V151.812L308.218 151.819Z" fill="white"/>
<path d="M313.379 144.375V143.079H318.955V144.382L313.379 144.375ZM314.886 151.819V142.325C314.869 141.951 314.927 141.577 315.056 141.225C315.186 140.873 315.384 140.55 315.639 140.276C315.926 140.011 316.264 139.808 316.632 139.678C317 139.549 317.39 139.496 317.779 139.523C318.11 139.52 318.439 139.56 318.759 139.643C319.051 139.713 319.324 139.847 319.558 140.035L319.083 141.24C318.914 141.106 318.723 141.001 318.518 140.931C318.306 140.861 318.085 140.826 317.862 140.826C317.669 140.813 317.476 140.84 317.294 140.907C317.113 140.973 316.947 141.076 316.807 141.21C316.545 141.535 316.415 141.947 316.446 142.363V143.531V144.284V151.894L314.886 151.819Z" fill="white"/>
<path d="M321.179 144.375V143.079H326.754V144.382L321.179 144.375ZM322.686 151.819V142.325C322.669 141.951 322.726 141.577 322.856 141.225C322.985 140.873 323.184 140.55 323.439 140.276C323.726 140.011 324.063 139.808 324.431 139.678C324.799 139.549 325.19 139.496 325.579 139.523C325.909 139.52 326.239 139.561 326.559 139.643C326.851 139.713 327.123 139.847 327.357 140.035L326.883 141.24C326.714 141.106 326.522 141.001 326.317 140.931C326.106 140.862 325.885 140.827 325.662 140.826C325.469 140.812 325.275 140.839 325.093 140.905C324.912 140.972 324.746 141.075 324.607 141.21C324.338 141.532 324.206 141.945 324.238 142.363V143.531V144.285V151.894L322.686 151.819ZM329.068 141.391C328.788 141.396 328.517 141.291 328.314 141.097C328.216 141.002 328.138 140.888 328.085 140.761C328.031 140.635 328.004 140.5 328.004 140.363C328.004 140.226 328.031 140.09 328.085 139.964C328.138 139.838 328.216 139.723 328.314 139.628C328.413 139.53 328.531 139.453 328.66 139.401C328.79 139.349 328.928 139.324 329.068 139.327C329.348 139.321 329.618 139.427 329.821 139.62C329.925 139.715 330.006 139.832 330.058 139.963C330.11 140.093 330.132 140.234 330.123 140.374C330.127 140.513 330.103 140.651 330.052 140.781C330.002 140.91 329.926 141.028 329.829 141.127C329.724 141.221 329.601 141.293 329.468 141.338C329.334 141.384 329.193 141.402 329.053 141.391H329.068ZM328.314 151.819V143.079H329.897V151.827L328.314 151.819Z" fill="white"/>
<path d="M338.651 151.917C337.819 151.93 336.997 151.73 336.263 151.337C335.584 150.969 335.018 150.421 334.628 149.755C334.237 149.048 334.032 148.253 334.032 147.445C334.032 146.637 334.237 145.843 334.628 145.136C335.016 144.469 335.582 143.924 336.263 143.561C336.997 143.17 337.819 142.973 338.651 142.988C339.385 142.975 340.111 143.138 340.768 143.463C341.383 143.767 341.889 144.254 342.215 144.857L341.01 145.611C340.752 145.206 340.39 144.878 339.962 144.661C339.549 144.458 339.096 144.353 338.636 144.352C338.109 144.348 337.59 144.481 337.129 144.736C336.68 144.983 336.309 145.352 336.059 145.799C335.784 146.294 335.646 146.853 335.66 147.419C335.646 147.99 335.784 148.554 336.059 149.054C336.311 149.504 336.681 149.877 337.129 150.131C337.592 150.381 338.11 150.511 338.636 150.508C339.096 150.508 339.549 150.402 339.962 150.199C340.388 149.983 340.75 149.658 341.01 149.257L342.215 150.011C341.88 150.607 341.377 151.092 340.768 151.405C340.115 151.746 339.388 151.921 338.651 151.917Z" fill="white"/>
<path d="M352.885 151.819V140.268H354.241L359.417 148.994H358.664L363.78 140.268H365.129V151.819H363.546V142.778H363.923L359.402 150.425H358.649L354.068 142.778H354.475V151.819H352.885Z" fill="white"/>
<path d="M372.95 151.917C372.363 151.929 371.78 151.816 371.24 151.586C370.783 151.393 370.391 151.074 370.11 150.667C369.841 150.277 369.701 149.813 369.71 149.34C369.704 148.888 369.822 148.443 370.05 148.052C370.314 147.638 370.701 147.316 371.157 147.133C371.816 146.874 372.522 146.755 373.229 146.786H376.01V147.924H373.297C372.734 147.857 372.165 147.999 371.7 148.323C371.567 148.444 371.461 148.592 371.39 148.757C371.319 148.922 371.283 149.1 371.285 149.28C371.281 149.48 371.325 149.677 371.415 149.856C371.504 150.034 371.635 150.189 371.798 150.305C372.215 150.591 372.717 150.729 373.222 150.697C373.766 150.706 374.302 150.568 374.774 150.297C375.22 150.038 375.561 149.63 375.738 149.145L376.055 150.229C375.839 150.757 375.448 151.193 374.947 151.465C374.333 151.788 373.644 151.944 372.95 151.917V151.917ZM375.814 151.819V149.966L375.731 149.619V146.47C375.749 146.184 375.707 145.897 375.607 145.628C375.507 145.359 375.352 145.114 375.151 144.91C374.656 144.512 374.029 144.315 373.395 144.36C372.882 144.36 372.372 144.447 371.888 144.616C371.432 144.766 371.008 144.998 370.637 145.302L369.974 144.111C370.458 143.732 371.01 143.451 371.602 143.283C372.246 143.085 372.917 142.986 373.591 142.989C374.592 142.926 375.58 143.237 376.364 143.863C376.708 144.213 376.973 144.633 377.14 145.094C377.308 145.556 377.375 146.048 377.336 146.538V151.812L375.814 151.819Z" fill="white"/>
<path d="M386.904 142.988C387.556 142.978 388.201 143.12 388.788 143.403C389.335 143.676 389.782 144.114 390.069 144.654C390.398 145.315 390.556 146.048 390.528 146.786V151.819H388.946V146.967C388.998 146.273 388.777 145.586 388.328 145.053C388.098 144.832 387.825 144.66 387.525 144.55C387.225 144.44 386.906 144.393 386.588 144.413C386.079 144.4 385.575 144.511 385.118 144.737C384.706 144.959 384.369 145.3 384.154 145.716C383.911 146.213 383.795 146.761 383.815 147.314V151.834H382.232V143.079H383.739V145.437L383.498 144.812C383.785 144.239 384.247 143.771 384.817 143.478C385.459 143.14 386.178 142.971 386.904 142.988V142.988Z" fill="white"/>
<path d="M398.002 151.917C397.418 151.929 396.837 151.816 396.3 151.586C395.843 151.393 395.451 151.074 395.169 150.666C394.901 150.277 394.761 149.813 394.77 149.34C394.764 148.888 394.881 148.443 395.109 148.052C395.374 147.637 395.761 147.316 396.217 147.132C396.873 146.873 397.576 146.755 398.281 146.786H401.054V147.924H398.349C397.785 147.856 397.217 147.998 396.752 148.323C396.618 148.443 396.512 148.591 396.44 148.756C396.369 148.921 396.333 149.1 396.337 149.28C396.333 149.479 396.377 149.677 396.467 149.856C396.556 150.034 396.687 150.188 396.85 150.305C397.265 150.589 397.764 150.727 398.266 150.696C398.813 150.707 399.352 150.569 399.826 150.297C400.269 150.034 400.61 149.627 400.79 149.144L401.107 150.229C400.888 150.755 400.498 151.19 399.999 151.465C399.384 151.787 398.696 151.943 398.002 151.917ZM400.873 151.819V149.965L400.79 149.619V146.469C400.807 146.183 400.764 145.896 400.663 145.627C400.561 145.358 400.405 145.114 400.203 144.91C399.709 144.509 399.081 144.312 398.447 144.36C397.934 144.36 397.424 144.446 396.94 144.616C396.483 144.767 396.057 144.999 395.682 145.301L395.026 144.111C395.508 143.733 396.058 143.452 396.646 143.282C397.291 143.085 397.961 142.985 398.635 142.988C399.636 142.924 400.625 143.236 401.408 143.862C401.752 144.213 402.017 144.633 402.185 145.094C402.352 145.556 402.419 146.048 402.38 146.537V151.812L400.873 151.819Z" fill="white"/>
<path d="M410.918 151.45C410.132 151.464 409.355 151.28 408.658 150.915C408.003 150.566 407.456 150.045 407.076 149.408C406.772 148.922 406.571 148.378 406.486 147.811C406.402 147.243 406.434 146.665 406.583 146.111C406.731 145.557 406.992 145.039 407.349 144.59C407.706 144.141 408.152 143.771 408.658 143.501C409.358 143.145 410.133 142.964 410.918 142.974C411.628 142.964 412.33 143.121 412.968 143.433C413.601 143.732 414.127 144.219 414.475 144.827C414.837 145.563 415.025 146.373 415.025 147.193C415.025 148.013 414.837 148.823 414.475 149.559C414.121 150.166 413.597 150.656 412.968 150.968C412.334 151.292 411.63 151.457 410.918 151.45V151.45ZM411.122 155.112C410.331 155.117 409.544 155.005 408.786 154.781C408.11 154.596 407.483 154.267 406.948 153.816L407.701 152.595C408.147 152.964 408.658 153.245 409.208 153.424C409.807 153.63 410.436 153.735 411.069 153.733C411.477 153.762 411.886 153.711 412.274 153.581C412.662 153.452 413.021 153.248 413.329 152.98C413.595 152.68 413.799 152.331 413.928 151.952C414.058 151.573 414.11 151.172 414.083 150.772V148.926L414.241 147.193L414.166 145.445V143.079H415.673V150.614C415.726 151.23 415.65 151.85 415.45 152.435C415.251 153.02 414.931 153.557 414.512 154.012C413.572 154.813 412.355 155.216 411.122 155.135V155.112ZM411.122 150.071C411.662 150.08 412.195 149.953 412.674 149.702C413.114 149.473 413.482 149.126 413.736 148.7C413.993 148.247 414.127 147.736 414.127 147.216C414.127 146.695 413.993 146.184 413.736 145.731C413.482 145.305 413.114 144.958 412.674 144.729C412.193 144.487 411.66 144.366 411.122 144.375C410.581 144.367 410.046 144.489 409.562 144.729C409.12 144.958 408.749 145.305 408.492 145.731C408.24 146.185 408.108 146.696 408.108 147.216C408.108 147.735 408.24 148.246 408.492 148.7C408.749 149.127 409.12 149.474 409.562 149.702C410.037 149.948 410.565 150.074 411.099 150.071H411.122Z" fill="white"/>
<path d="M424.548 151.917C423.689 151.934 422.839 151.735 422.077 151.337C421.39 150.973 420.819 150.425 420.427 149.755C420.032 149.049 419.832 148.25 419.847 147.441C419.831 146.637 420.026 145.842 420.412 145.136C420.781 144.478 421.323 143.933 421.979 143.561C422.673 143.184 423.45 142.986 424.239 142.986C425.029 142.986 425.806 143.184 426.5 143.561C427.141 143.933 427.663 144.479 428.007 145.136C428.39 145.864 428.582 146.679 428.564 147.502C428.564 147.57 428.564 147.645 428.564 147.735C428.568 147.816 428.568 147.896 428.564 147.976H421.127V146.846H427.743L427.095 147.246C427.122 146.721 427.002 146.199 426.749 145.739C426.519 145.309 426.175 144.951 425.754 144.706C425.301 144.464 424.795 144.338 424.281 144.338C423.767 144.338 423.261 144.464 422.808 144.706C422.383 144.952 422.035 145.312 421.806 145.746C421.558 146.21 421.431 146.728 421.436 147.253V147.517C421.426 148.064 421.566 148.604 421.843 149.076C422.112 149.532 422.504 149.903 422.974 150.146C423.49 150.404 424.061 150.533 424.639 150.523C425.121 150.529 425.6 150.439 426.048 150.259C426.473 150.081 426.854 149.811 427.163 149.468L428.037 150.486C427.628 150.957 427.111 151.322 426.53 151.548C425.9 151.801 425.227 151.926 424.548 151.917V151.917Z" fill="white"/>
<path d="M443.663 142.988C444.31 142.978 444.95 143.12 445.532 143.403C446.071 143.679 446.511 144.117 446.79 144.654C447.113 145.317 447.268 146.049 447.242 146.786V151.819H445.66V146.967C445.713 146.276 445.5 145.592 445.065 145.053C444.85 144.833 444.59 144.661 444.302 144.551C444.015 144.44 443.707 144.393 443.4 144.413C442.917 144.401 442.44 144.512 442.013 144.736C441.618 144.963 441.3 145.305 441.102 145.716C440.868 146.215 440.757 146.763 440.778 147.313V151.834H439.195V146.982C439.246 146.293 439.036 145.61 438.608 145.068C438.391 144.847 438.13 144.676 437.841 144.565C437.552 144.455 437.243 144.408 436.935 144.428C436.458 144.417 435.985 144.528 435.564 144.752C435.167 144.98 434.847 145.321 434.644 145.731C434.405 146.228 434.291 146.777 434.313 147.328V151.849H432.73V143.079H434.237V145.407L433.989 144.812C434.263 144.245 434.709 143.779 435.262 143.478C435.874 143.145 436.563 142.979 437.259 142.996C438.026 142.977 438.78 143.193 439.421 143.614C440.044 144.062 440.469 144.735 440.604 145.49L439.964 145.226C440.232 144.547 440.72 143.977 441.35 143.606C442.047 143.184 442.849 142.97 443.663 142.988V142.988Z" fill="white"/>
<path d="M456.037 151.917C455.18 151.934 454.332 151.735 453.573 151.337C452.886 150.973 452.315 150.425 451.923 149.755C451.523 149.05 451.32 148.251 451.335 147.441C451.317 146.636 451.515 145.84 451.908 145.136C452.273 144.475 452.816 143.929 453.475 143.561C454.168 143.182 454.946 142.984 455.735 142.984C456.525 142.984 457.303 143.182 457.996 143.561C458.636 143.934 459.158 144.48 459.503 145.136C459.884 145.865 460.073 146.679 460.053 147.502C460.053 147.57 460.053 147.645 460.053 147.735V147.976H452.608V146.846H459.224L458.584 147.246C458.601 146.722 458.482 146.202 458.237 145.739C458.007 145.307 457.66 144.949 457.235 144.706C456.783 144.464 456.278 144.338 455.766 144.338C455.253 144.338 454.748 144.464 454.296 144.706C453.869 144.951 453.519 145.312 453.287 145.746C453.042 146.21 452.918 146.728 452.925 147.253V147.517C452.914 148.063 453.052 148.602 453.324 149.076C453.593 149.532 453.985 149.903 454.455 150.146C454.974 150.404 455.548 150.533 456.127 150.523C456.61 150.528 457.088 150.439 457.536 150.259C457.959 150.077 458.339 149.807 458.651 149.468L459.526 150.486C459.115 150.955 458.599 151.319 458.019 151.548C457.389 151.8 456.715 151.925 456.037 151.917V151.917Z" fill="white"/>
<path d="M468.89 142.988C469.541 142.978 470.187 143.12 470.774 143.403C471.321 143.676 471.768 144.113 472.054 144.654C472.384 145.315 472.542 146.048 472.514 146.786V151.819H470.947V146.967C470.999 146.273 470.777 145.586 470.329 145.053C470.099 144.832 469.826 144.66 469.526 144.55C469.226 144.44 468.907 144.393 468.589 144.413C468.08 144.4 467.575 144.511 467.119 144.737C466.706 144.959 466.37 145.3 466.155 145.716C465.912 146.213 465.796 146.761 465.816 147.314V151.834H464.233V143.079H465.74V145.437L465.499 144.812C465.786 144.238 466.248 143.771 466.818 143.478C467.456 143.142 468.169 142.974 468.89 142.988V142.988Z" fill="white"/>
<path d="M476.177 144.375V143.079H481.753V144.383L476.177 144.375ZM480.434 151.91C480.064 151.932 479.693 151.881 479.342 151.76C478.992 151.638 478.669 151.449 478.392 151.202C478.133 150.933 477.932 150.613 477.802 150.263C477.673 149.913 477.617 149.54 477.638 149.167V141.15H479.221V149.107C479.194 149.502 479.324 149.892 479.582 150.192C479.714 150.323 479.872 150.425 480.046 150.49C480.221 150.555 480.407 150.582 480.592 150.569C481.04 150.586 481.478 150.442 481.828 150.162L482.325 151.299C482.072 151.512 481.777 151.669 481.459 151.759C481.126 151.86 480.781 151.913 480.434 151.917V151.91Z" fill="white"/>
<path d="M496.256 151.947C495.399 151.95 494.546 151.815 493.732 151.548C493.031 151.335 492.384 150.976 491.833 150.493L492.443 149.212C492.942 149.629 493.511 149.953 494.124 150.169C494.807 150.419 495.529 150.546 496.256 150.546C496.808 150.565 497.359 150.486 497.883 150.312C498.25 150.2 498.573 149.98 498.81 149.679C499.005 149.415 499.108 149.095 499.104 148.768C499.112 148.59 499.081 148.413 499.015 148.248C498.949 148.083 498.848 147.934 498.72 147.811C498.428 147.546 498.084 147.346 497.71 147.223C497.267 147.064 496.814 146.933 496.354 146.831C495.852 146.726 495.349 146.598 494.847 146.447C494.37 146.308 493.91 146.116 493.476 145.874C493.069 145.654 492.724 145.336 492.474 144.947C492.208 144.491 492.077 143.968 492.097 143.441C492.095 142.861 492.259 142.294 492.571 141.806C492.921 141.267 493.426 140.847 494.018 140.6C494.81 140.273 495.663 140.119 496.52 140.148C497.194 140.146 497.866 140.235 498.516 140.412C499.126 140.562 499.704 140.817 500.227 141.165L499.684 142.484C499.203 142.163 498.674 141.922 498.117 141.768C497.596 141.627 497.059 141.554 496.52 141.549C495.975 141.534 495.431 141.616 494.915 141.79C494.554 141.92 494.238 142.15 494.003 142.453C493.811 142.724 493.711 143.049 493.717 143.38C493.708 143.56 493.738 143.74 493.804 143.908C493.871 144.075 493.972 144.227 494.101 144.352C494.393 144.615 494.737 144.812 495.111 144.932C495.518 145.068 495.977 145.204 496.467 145.317C496.957 145.43 497.462 145.558 497.974 145.701C498.452 145.834 498.912 146.024 499.345 146.266C499.75 146.485 500.094 146.801 500.347 147.185C500.618 147.64 500.749 148.164 500.724 148.692C500.728 149.27 500.56 149.837 500.242 150.32C499.871 150.863 499.346 151.283 498.735 151.525C497.946 151.835 497.103 151.979 496.256 151.947V151.947Z" fill="white"/>
<path d="M505.096 155.134C504.681 155.134 504.268 155.066 503.875 154.931C503.496 154.803 503.147 154.598 502.851 154.328L503.529 153.145C503.749 153.347 504.005 153.508 504.282 153.62C504.549 153.732 504.836 153.788 505.126 153.786C505.469 153.8 505.807 153.696 506.083 153.492C506.401 153.2 506.645 152.836 506.791 152.429L507.334 151.232L507.499 151.028L510.883 143.079H512.435L508.193 152.701C507.991 153.227 507.704 153.716 507.341 154.147C507.063 154.478 506.708 154.736 506.309 154.901C505.923 155.056 505.512 155.135 505.096 155.134V155.134ZM507.176 152.121L503.182 143.079H504.855L508.253 150.87L507.176 152.121Z" fill="white"/>
<path d="M518.311 151.917C517.609 151.922 516.91 151.821 516.239 151.616C515.683 151.459 515.16 151.204 514.694 150.862L515.357 149.612C515.787 149.89 516.254 150.105 516.744 150.252C517.287 150.426 517.854 150.515 518.424 150.516C518.973 150.558 519.523 150.448 520.014 150.199C520.167 150.111 520.293 149.984 520.379 149.83C520.465 149.676 520.508 149.502 520.504 149.325C520.511 149.203 520.487 149.08 520.436 148.969C520.385 148.857 520.307 148.76 520.21 148.685C519.984 148.52 519.728 148.402 519.456 148.338C519.125 148.263 518.771 148.195 518.371 148.135C517.972 148.075 517.58 147.992 517.181 147.901C516.804 147.815 516.439 147.681 516.096 147.502C515.773 147.342 515.5 147.097 515.305 146.794C515.091 146.426 514.989 146.005 515.011 145.581C515.002 145.082 515.158 144.595 515.455 144.194C515.782 143.78 516.218 143.464 516.714 143.283C517.334 143.056 517.99 142.946 518.65 142.959C519.237 142.959 519.821 143.03 520.391 143.17C520.903 143.276 521.393 143.472 521.837 143.75L521.159 145.008C520.784 144.752 520.365 144.568 519.923 144.466C519.502 144.363 519.069 144.313 518.635 144.315C518.096 144.279 517.558 144.396 517.083 144.654C516.93 144.741 516.803 144.867 516.714 145.019C516.626 145.172 516.579 145.344 516.578 145.52C516.571 145.65 516.594 145.78 516.647 145.899C516.699 146.018 516.779 146.123 516.879 146.206C517.105 146.375 517.361 146.5 517.633 146.575C517.957 146.658 518.318 146.733 518.71 146.794C519.102 146.854 519.509 146.937 519.901 147.027C520.274 147.113 520.635 147.242 520.978 147.412C521.332 147.575 521.628 147.844 521.824 148.18C522.021 148.517 522.11 148.906 522.078 149.295C522.09 149.792 521.928 150.277 521.619 150.667C521.272 151.076 520.822 151.386 520.315 151.563C519.674 151.799 518.995 151.919 518.311 151.917V151.917Z" fill="white"/>
<path d="M524.791 144.375V143.079H530.367V144.383L524.791 144.375ZM529.048 151.91C528.678 151.932 528.307 151.881 527.957 151.76C527.606 151.638 527.283 151.449 527.006 151.202C526.747 150.933 526.546 150.613 526.417 150.263C526.287 149.913 526.231 149.54 526.253 149.167V141.15H527.835V149.107C527.808 149.502 527.938 149.892 528.197 150.192C528.328 150.323 528.486 150.425 528.661 150.49C528.835 150.555 529.021 150.582 529.206 150.569C529.654 150.586 530.093 150.442 530.442 150.162L530.94 151.299C530.687 151.512 530.391 151.669 530.073 151.759C529.74 151.86 529.396 151.913 529.048 151.917V151.91Z" fill="white"/>
<path d="M538.451 151.917C537.594 151.935 536.746 151.735 535.987 151.337C535.297 150.978 534.724 150.429 534.336 149.755C533.937 149.05 533.734 148.252 533.749 147.442C533.734 146.637 533.928 145.842 534.314 145.136C534.683 144.478 535.225 143.933 535.881 143.561C536.57 143.172 537.35 142.974 538.142 142.989C538.932 142.969 539.713 143.165 540.402 143.554C541.042 143.927 541.564 144.473 541.909 145.129C542.29 145.858 542.479 146.672 542.459 147.495C542.459 147.562 542.459 147.638 542.459 147.728C542.463 147.808 542.463 147.889 542.459 147.969H534.992V146.846H541.608L540.967 147.246C540.985 146.722 540.865 146.203 540.621 145.739C540.388 145.309 540.041 144.951 539.618 144.707C539.16 144.446 538.638 144.319 538.111 144.337C537.585 144.32 537.063 144.448 536.604 144.707C536.179 144.952 535.832 145.312 535.602 145.746C535.358 146.211 535.233 146.729 535.241 147.253V147.517C535.23 148.063 535.368 148.603 535.64 149.077C535.909 149.533 536.3 149.903 536.77 150.147C537.29 150.404 537.863 150.533 538.443 150.523C538.925 150.528 539.404 150.438 539.852 150.26C540.274 150.079 540.652 149.809 540.96 149.469L541.834 150.486C541.427 150.959 540.909 151.324 540.327 151.548C539.73 151.787 539.094 151.913 538.451 151.917V151.917Z" fill="white"/>
<path d="M557.596 142.988C558.243 142.978 558.883 143.12 559.465 143.403C560.004 143.679 560.443 144.116 560.723 144.654C561.048 145.316 561.206 146.048 561.183 146.786V151.819H559.593V146.967C559.644 146.278 559.434 145.595 559.005 145.053C558.788 144.833 558.526 144.662 558.238 144.552C557.949 144.442 557.641 144.394 557.332 144.412C556.85 144.401 556.373 144.512 555.946 144.736C555.55 144.963 555.232 145.305 555.034 145.716C554.801 146.215 554.69 146.763 554.71 147.313V151.834H553.075V146.982C553.126 146.293 552.916 145.61 552.488 145.068C552.272 144.847 552.01 144.675 551.721 144.564C551.433 144.454 551.123 144.407 550.815 144.428C550.34 144.417 549.87 144.528 549.451 144.751C549.05 144.976 548.726 145.318 548.524 145.731C548.288 146.229 548.174 146.777 548.193 147.328V151.849H546.61V143.079H548.117V145.407L547.869 144.812C548.143 144.245 548.589 143.779 549.142 143.478C549.754 143.145 550.442 142.979 551.139 142.996C551.906 142.977 552.66 143.192 553.301 143.614C553.927 144.059 554.352 144.733 554.484 145.49L553.844 145.226C554.112 144.547 554.601 143.977 555.23 143.606C555.943 143.176 556.764 142.961 557.596 142.988V142.988Z" fill="white"/>
<defs>
<linearGradient id="paint0_linear_149404_203975" x1="0.00108401" y1="58.5474" x2="117.107" y2="58.5475" gradientUnits="userSpaceOnUse">
<stop stop-color="#177DDC"/>
<stop offset="1" stop-color="#006DBF"/>
</linearGradient>
<linearGradient id="paint1_linear_149404_203975" x1="102.414" y1="127.469" x2="197.383" y2="127.469" gradientUnits="userSpaceOnUse">
<stop stop-color="#177DDC"/>
<stop offset="1" stop-color="#006DBF"/>
</linearGradient>
<linearGradient id="paint2_linear_149404_203975" x1="50.0615" y1="73.4962" x2="250.404" y2="73.4962" gradientUnits="userSpaceOnUse">
<stop stop-color="#177DDC"/>
<stop offset="1" stop-color="#006DBF"/>
</linearGradient>
<linearGradient id="paint3_linear_149404_203975" x1="63.9791" y1="114.417" x2="166.828" y2="31.7905" gradientUnits="userSpaceOnUse">
<stop stop-color="#3CA2EF"/>
<stop offset="1" stop-color="#0973CA"/>
</linearGradient>
<linearGradient id="paint4_linear_149404_203975" x1="102.436" y1="123.579" x2="189.643" y2="123.579" gradientUnits="userSpaceOnUse">
<stop stop-color="#3CA2EF"/>
<stop offset="1" stop-color="#006DBF"/>
</linearGradient>
<linearGradient id="paint5_linear_149404_203975" x1="0.165763" y1="86.3954" x2="102.156" y2="27.4354" gradientUnits="userSpaceOnUse">
<stop stop-color="#3CA2EF"/>
<stop offset="1" stop-color="#0973CA"/>
</linearGradient>
</defs>
</svg>
