<svg width="32" height="32" viewBox="0 0 32 32" fill="none" xmlns="http://www.w3.org/2000/svg">
<rect x="0.5" y="0.5" width="31" height="31" rx="4.5" fill="white" fill-opacity="0.1"/>
<path d="M8.19824 17.5156L9.87305 11.8906H11.5039L9.02832 19H7.9541L8.19824 17.5156ZM6.65527 11.8906L8.3252 17.5156L8.5791 19H7.49512L5.03418 11.8906H6.65527ZM12.8369 11.8906H14.0771L15.9033 17.1104L17.7295 11.8906H18.9697L16.4014 19H15.4053L12.8369 11.8906ZM12.168 11.8906H13.4033L13.6279 16.9785V19H12.168V11.8906ZM18.4033 11.8906H19.6436V19H18.1787V16.9785L18.4033 11.8906ZM24.6289 17.1396C24.6289 17.0127 24.6094 16.8988 24.5703 16.7979C24.5345 16.6937 24.4661 16.5993 24.3652 16.5146C24.2643 16.4268 24.1227 16.3405 23.9404 16.2559C23.7581 16.1712 23.5221 16.0833 23.2324 15.9922C22.9102 15.888 22.6042 15.7708 22.3145 15.6406C22.028 15.5104 21.7741 15.359 21.5527 15.1865C21.3346 15.0107 21.1621 14.8073 21.0352 14.5762C20.9115 14.3451 20.8496 14.0765 20.8496 13.7705C20.8496 13.4743 20.9147 13.2057 21.0449 12.9648C21.1751 12.7207 21.3574 12.5124 21.5918 12.3398C21.8262 12.1641 22.1029 12.029 22.4219 11.9346C22.7441 11.8402 23.0973 11.793 23.4814 11.793C24.0055 11.793 24.4629 11.8874 24.8535 12.0762C25.2441 12.265 25.5469 12.5238 25.7617 12.8525C25.9798 13.1813 26.0889 13.5573 26.0889 13.9805H24.6338C24.6338 13.7721 24.5898 13.5898 24.502 13.4336C24.4173 13.2741 24.2871 13.1488 24.1113 13.0576C23.9388 12.9665 23.7207 12.9209 23.457 12.9209C23.2031 12.9209 22.9915 12.96 22.8223 13.0381C22.653 13.113 22.526 13.2155 22.4414 13.3457C22.3568 13.4727 22.3145 13.6159 22.3145 13.7754C22.3145 13.8958 22.3438 14.0049 22.4023 14.1025C22.4642 14.2002 22.5553 14.2913 22.6758 14.376C22.7962 14.4606 22.9443 14.5404 23.1201 14.6152C23.2959 14.6901 23.4993 14.7633 23.7305 14.835C24.1178 14.9521 24.458 15.084 24.751 15.2305C25.0472 15.377 25.2946 15.5413 25.4932 15.7236C25.6917 15.9059 25.8415 16.1126 25.9424 16.3438C26.0433 16.5749 26.0938 16.8369 26.0938 17.1299C26.0938 17.4391 26.0335 17.7158 25.9131 17.96C25.7926 18.2041 25.6185 18.4108 25.3906 18.5801C25.1628 18.7493 24.891 18.8779 24.5752 18.9658C24.2594 19.0537 23.9062 19.0977 23.5156 19.0977C23.1641 19.0977 22.8174 19.0521 22.4756 18.9609C22.1338 18.8665 21.8229 18.7249 21.543 18.5361C21.2663 18.3473 21.0449 18.1064 20.8789 17.8135C20.7129 17.5205 20.6299 17.1738 20.6299 16.7734H22.0996C22.0996 16.9948 22.1338 17.182 22.2021 17.335C22.2705 17.488 22.3665 17.6117 22.4902 17.7061C22.6172 17.8005 22.7669 17.8688 22.9395 17.9111C23.1152 17.9535 23.3073 17.9746 23.5156 17.9746C23.7695 17.9746 23.9779 17.9388 24.1406 17.8672C24.3066 17.7956 24.4287 17.6963 24.5068 17.5693C24.5882 17.4424 24.6289 17.2992 24.6289 17.1396Z" fill="#1890FF"/>
<rect x="0.5" y="0.5" width="31" height="31" rx="4.5" stroke="#1890FF"/>
</svg>
