<svg width="570" height="152" viewBox="0 0 570 152" fill="none" xmlns="http://www.w3.org/2000/svg">
<path d="M52.4095 84.7598L117.057 20.1099L105.579 8.63588C102.893 5.94918 99.7039 3.81794 96.1942 2.36386C92.6844 0.909792 88.9225 0.161377 85.1235 0.161377C81.3244 0.161377 77.5626 0.909792 74.0528 2.36386C70.5431 3.81794 67.3541 5.94918 64.6682 8.63588L0.0175781 73.2822L11.4953 84.7563C16.9204 90.1822 24.2788 93.2308 31.9517 93.2314C39.6245 93.2321 46.9834 90.1848 52.4095 84.7598Z" fill="url(#paint0_linear_149404_203908)"/>
<path d="M154.763 142.579L197.288 100.054L185.81 88.5763C180.385 83.1509 173.026 80.103 165.353 80.103C157.68 80.103 150.322 83.1509 144.896 88.5763L102.356 131.101L113.834 142.579C116.52 145.266 119.71 147.397 123.22 148.851C126.73 150.305 130.492 151.054 134.291 151.054C138.091 151.054 141.853 150.305 145.363 148.851C148.873 147.397 152.062 145.266 154.748 142.579H154.763Z" fill="url(#paint1_linear_149404_203908)"/>
<path d="M250.276 72.943L238.802 84.4065C236.116 87.0928 232.927 89.2237 229.417 90.6775C225.908 92.1313 222.146 92.8795 218.347 92.8795C214.548 92.8795 210.786 92.1313 207.277 90.6775C203.767 89.2237 200.578 87.0928 197.892 84.4065L165.349 51.896L102.448 114.797C99.7614 117.483 96.5724 119.614 93.0626 121.068C89.5529 122.521 85.7912 123.27 81.9923 123.27C78.1933 123.27 74.4316 122.521 70.9219 121.068C67.4121 119.614 64.2231 117.483 61.5369 114.797L50.0557 103.323L144.895 8.47334C150.321 3.04794 157.68 0 165.353 0C173.025 0 180.384 3.04794 185.81 8.47334L250.276 72.943Z" fill="url(#paint2_linear_149404_203908)"/>
<path d="M189.428 12.0777L94.5814 106.931C91.8952 109.617 88.7062 111.748 85.1964 113.201C81.6867 114.655 77.925 115.404 74.126 115.404C70.3271 115.404 66.5654 114.655 63.0557 113.201C59.5459 111.748 56.3569 109.617 53.6707 106.931L50.0557 103.326L144.616 8.75598C156.525 -3.15275 174.689 -2.66508 186.191 8.83727L189.428 12.0777Z" fill="url(#paint3_linear_149404_203908)"/>
<path d="M189.552 92.3221L147.048 134.815C144.362 137.502 141.173 139.632 137.664 141.086C134.155 142.54 130.393 143.288 126.594 143.288C122.796 143.288 119.034 142.54 115.525 141.086C112.016 139.632 108.827 137.502 106.141 134.815L102.392 131.077L144.896 88.5763C147.581 85.8893 150.77 83.7578 154.279 82.3035C157.789 80.8492 161.551 80.1006 165.35 80.1006C169.148 80.1006 172.91 80.8492 176.42 82.3035C179.929 83.7578 183.118 85.8893 185.803 88.5763L189.552 92.3221Z" fill="url(#paint4_linear_149404_203908)"/>
<path d="M109.569 12.6502L44.9003 77.2754C42.2146 79.9625 39.0257 82.0941 35.5159 83.5484C32.0061 85.0028 28.2442 85.7513 24.445 85.7513C20.6458 85.7513 16.8838 85.0028 13.374 83.5484C9.86423 82.0941 6.67538 79.9625 3.98966 77.2754L0 73.2858L64.6506 8.63587C67.3368 5.9496 70.5258 3.81873 74.0355 2.36492C77.5453 0.911112 81.307 0.162842 85.106 0.162842C88.9049 0.162842 92.6666 0.911112 96.1763 2.36492C99.6861 3.81873 102.875 5.9496 105.561 8.63587L107.123 10.1978L109.569 12.6502Z" fill="url(#paint5_linear_149404_203908)"/>
<path d="M305.283 110.079C300.395 110.162 295.672 108.312 292.141 104.93C288.487 101.498 286.455 97.1633 286.045 91.9263L281.713 18.7036H304.944L307.248 83.1202L336.851 18.7036H362.52L318.492 110.079H305.283Z" fill="#002766"/>
<path d="M442.239 110.079H424.358C424.944 107.775 425.915 103.97 427.27 98.6652C428.624 93.3598 430.059 87.7259 431.574 81.7633C433.081 75.8054 434.921 68.4681 437.093 59.7515C433.345 65.349 429.112 71.5013 424.393 78.2083C419.674 84.9154 413.748 93.3033 406.615 103.372C403.49 103.4 400.451 102.348 398.013 100.393C395.498 98.3849 393.77 95.5549 393.133 92.3998C392.952 91.6342 392.535 89.4998 391.882 85.9967C391.23 82.4936 390.496 78.577 389.681 74.247C388.868 69.9123 387.851 64.4479 386.631 57.8539C386.054 60.2427 385.082 64.1935 383.716 69.7061C382.349 75.2188 380.912 81.0671 379.404 87.2512C377.892 93.4399 376.03 101.049 373.817 110.079H352.018C352.465 108.272 353.695 103.237 355.707 94.9724C357.719 86.7082 359.957 77.5074 362.421 67.3703L371.736 28.9974C374.309 22.1348 378.801 18.7036 385.214 18.7036H398.133C398.313 19.6459 398.888 22.6602 399.861 27.7464C400.834 32.8326 401.929 38.5444 403.144 44.8816C404.367 51.2282 405.898 59.238 407.738 68.911L443.571 18.7318H468.36C467.866 20.6707 466.489 26.2811 464.229 35.5631C461.97 44.845 459.453 55.2201 456.678 66.6883C453.9 78.1588 450.389 92.6319 446.144 110.107L442.239 110.079Z" fill="#002766"/>
<path d="M506.585 39.6339C505.997 39.6188 505.422 39.8101 504.96 40.1746C504.535 40.5407 504.208 41.0071 504.009 41.5315C503.604 43.1571 503.277 44.5117 503.027 45.5954C502.779 46.6767 502.543 47.6838 502.32 48.6096C502.097 49.5355 501.935 50.1786 501.846 50.5391C501.771 50.9283 501.781 51.3292 501.874 51.7145C501.967 52.0998 502.142 52.4606 502.387 52.7724C502.615 53.076 502.912 53.3206 503.254 53.486C503.596 53.6514 503.972 53.7326 504.352 53.723H537.474C543.573 53.723 548.451 56.1165 552.108 60.9035C555.764 65.6435 556.892 71.1067 555.493 77.2931C555.484 77.365 555.461 77.4345 555.426 77.498C555.426 77.5899 555.231 78.4133 554.85 79.9716C554.468 81.53 554.016 83.3711 553.496 85.4949C552.977 87.6187 552.489 89.5799 552.04 91.3857C551.592 93.1914 551.316 94.3681 551.228 94.9194C550.096 99.2406 547.601 103.082 544.114 105.874C540.58 108.677 536.47 110.078 531.785 110.076H465.738C466.643 106.191 467.411 102.95 468.042 100.354C468.674 97.7582 469.25 95.3647 469.77 93.1737C470.291 90.9875 470.618 89.554 470.753 88.8732H528.802C530.067 88.8732 530.947 88.2182 531.442 86.9084C531.852 85.2829 532.179 83.9283 532.424 82.8446C532.669 81.7609 532.905 80.7561 533.131 79.8303C533.367 78.9044 533.526 78.2613 533.608 77.9009C533.767 77.5379 533.826 77.1387 533.778 76.7452C533.73 76.3517 533.578 75.9783 533.336 75.664C533.118 75.3454 532.825 75.0859 532.482 74.9089C532.139 74.7318 531.757 74.6428 531.371 74.6498H498.044C491.902 74.6498 487.003 72.3234 483.347 67.6707C479.644 63.0203 478.515 57.5347 479.962 51.214V51.0091L480.096 50.4013C480.367 49.3623 480.807 47.6237 481.418 45.1854C482.028 42.7472 482.617 40.3642 483.185 38.0367C483.75 35.7115 484.122 34.1884 484.301 33.4675C488.139 23.6225 494.574 18.7 503.606 18.7H569.716C568.814 22.5377 568.047 25.7322 567.416 28.2835C566.785 30.8349 566.208 33.1907 565.688 35.351C565.17 37.5207 564.842 38.9437 564.706 39.6198H506.585V39.6339Z" fill="#002766"/>
<path d="M285.735 139.915V129.804H281.777V128.391H291.319V129.804H287.361V139.915H285.735Z" fill="#002766"/>
<path d="M294.654 139.915V131.176H296.17V133.55L296.022 132.957C296.253 132.366 296.685 131.876 297.241 131.571C297.895 131.232 298.625 131.067 299.361 131.091V132.624C299.298 132.619 299.234 132.619 299.17 132.624H298.997C298.628 132.605 298.259 132.663 297.913 132.793C297.567 132.923 297.252 133.123 296.987 133.381C296.724 133.679 296.523 134.027 296.396 134.404C296.269 134.78 296.217 135.178 296.245 135.575V139.929L294.654 139.915Z" fill="#002766"/>
<path d="M305.195 140.01C304.609 140.022 304.028 139.91 303.488 139.681C303.033 139.49 302.642 139.173 302.361 138.766C302.096 138.376 301.958 137.913 301.965 137.441C301.96 136.99 302.076 136.546 302.301 136.155C302.563 135.738 302.95 135.415 303.407 135.232C304.065 134.971 304.77 134.851 305.478 134.879H308.245V136.017H305.548C304.757 136.017 304.223 136.151 303.951 136.416C303.818 136.537 303.713 136.684 303.642 136.849C303.57 137.013 303.535 137.191 303.538 137.37C303.532 137.571 303.576 137.769 303.664 137.949C303.753 138.129 303.884 138.284 304.046 138.402C304.464 138.68 304.96 138.815 305.46 138.787C306.006 138.8 306.545 138.663 307.018 138.392C307.463 138.13 307.804 137.723 307.983 137.24L308.294 138.328C308.079 138.852 307.69 139.285 307.192 139.554C306.578 139.879 305.889 140.036 305.195 140.01ZM308.064 139.915V138.066L307.983 137.713V134.586C308 134.299 307.957 134.012 307.856 133.744C307.755 133.475 307.598 133.231 307.397 133.027C306.901 132.622 306.268 132.424 305.63 132.476C305.114 132.476 304.601 132.562 304.114 132.73C303.657 132.88 303.232 133.112 302.859 133.416L302.202 132.229C302.683 131.847 303.234 131.564 303.824 131.395C304.468 131.201 305.137 131.103 305.81 131.105C307.008 131.105 307.93 131.398 308.58 131.981C309.231 132.564 309.556 133.455 309.556 134.653V139.929L308.064 139.915Z" fill="#002766"/>
<path d="M313.217 132.465V131.165H318.79V132.465H313.217ZM314.701 139.886V130.37C314.684 129.996 314.741 129.622 314.87 129.27C314.999 128.918 315.196 128.595 315.45 128.32C315.735 128.053 316.072 127.847 316.439 127.715C316.807 127.583 317.198 127.528 317.588 127.553C317.918 127.551 318.248 127.593 318.567 127.677C318.857 127.748 319.13 127.879 319.366 128.062L318.889 129.267C318.72 129.134 318.53 129.031 318.327 128.963C318.115 128.891 317.893 128.854 317.669 128.854C317.475 128.84 317.281 128.868 317.098 128.935C316.915 129.002 316.749 129.107 316.609 129.243C316.35 129.565 316.224 129.975 316.256 130.388V131.557L316.288 132.285V139.886H314.701Z" fill="#002766"/>
<path d="M321.016 132.465V131.165H326.588V132.465H321.016ZM322.5 139.886V130.37C322.483 129.996 322.54 129.622 322.669 129.27C322.797 128.918 322.995 128.595 323.249 128.32C323.532 128.055 323.866 127.85 324.23 127.718C324.595 127.587 324.982 127.53 325.369 127.553C325.7 127.551 326.029 127.593 326.348 127.677C326.639 127.748 326.911 127.879 327.147 128.062L326.67 129.267C326.502 129.134 326.311 129.031 326.108 128.963C325.896 128.891 325.674 128.854 325.451 128.854C325.256 128.84 325.062 128.868 324.879 128.935C324.696 129.002 324.53 129.107 324.39 129.243C324.131 129.565 324.005 129.975 324.037 130.388V131.557L324.069 132.285V139.886H322.5ZM328.882 129.465C328.741 129.469 328.6 129.445 328.468 129.394C328.337 129.343 328.217 129.266 328.115 129.168C328.018 129.078 327.941 128.969 327.888 128.847C327.835 128.725 327.808 128.594 327.808 128.462C327.804 128.323 327.83 128.186 327.883 128.058C327.936 127.93 328.015 127.815 328.115 127.72C328.217 127.622 328.337 127.545 328.468 127.494C328.6 127.443 328.741 127.419 328.882 127.423C329.022 127.418 329.161 127.44 329.292 127.49C329.423 127.539 329.543 127.613 329.645 127.709C329.743 127.799 329.821 127.908 329.874 128.03C329.927 128.151 329.954 128.283 329.953 128.416C329.957 128.556 329.933 128.696 329.881 128.827C329.829 128.957 329.751 129.076 329.652 129.175C329.553 129.274 329.434 129.352 329.303 129.404C329.173 129.456 329.033 129.48 328.892 129.476L328.882 129.465ZM328.09 139.886V131.147H329.67V139.886H328.09Z" fill="#002766"/>
<path d="M338.476 140.01C337.645 140.025 336.824 139.827 336.091 139.434C335.41 139.066 334.843 138.518 334.451 137.851C334.062 137.144 333.857 136.35 333.857 135.543C333.857 134.736 334.062 133.943 334.451 133.236C334.843 132.57 335.41 132.025 336.091 131.66C336.826 131.273 337.646 131.077 338.476 131.091C339.21 131.078 339.936 131.239 340.596 131.561C341.212 131.872 341.716 132.366 342.042 132.974L340.837 133.748C340.575 133.343 340.208 133.016 339.777 132.801C339.364 132.596 338.909 132.491 338.448 132.494C337.912 132.485 337.383 132.616 336.914 132.875C336.471 133.125 336.104 133.492 335.854 133.935C335.58 134.431 335.443 134.991 335.458 135.557C335.444 136.127 335.58 136.69 335.854 137.19C336.103 137.634 336.47 138.001 336.914 138.25C337.383 138.509 337.912 138.641 338.448 138.632C338.909 138.635 339.364 138.529 339.777 138.324C340.208 138.109 340.575 137.782 340.837 137.377L342.042 138.137C341.707 138.733 341.205 139.218 340.596 139.529C339.94 139.861 339.212 140.026 338.476 140.01Z" fill="#002766"/>
<path d="M352.703 139.915V128.373H354.057L359.234 137.095H358.506L363.619 128.373H364.969V139.915H363.386V130.861H363.767L359.216 138.512H358.456L353.862 130.861H354.276V139.915H352.703Z" fill="#002766"/>
<path d="M372.751 140.01C372.166 140.022 371.585 139.91 371.047 139.681C370.59 139.491 370.198 139.173 369.917 138.766C369.652 138.376 369.513 137.913 369.521 137.441C369.519 136.988 369.641 136.543 369.874 136.155C370.135 135.738 370.521 135.415 370.977 135.232C371.635 134.971 372.34 134.851 373.047 134.879H375.814V136.017H373.111C372.32 136.017 371.786 136.151 371.514 136.416C371.381 136.537 371.276 136.684 371.205 136.849C371.133 137.013 371.098 137.191 371.1 137.37C371.095 137.571 371.139 137.77 371.228 137.95C371.318 138.13 371.45 138.285 371.613 138.402C372.029 138.681 372.526 138.817 373.026 138.787C373.572 138.8 374.111 138.663 374.585 138.392C375.03 138.13 375.37 137.723 375.549 137.24L375.86 138.328C375.645 138.852 375.256 139.285 374.758 139.554C374.141 139.88 373.448 140.038 372.751 140.01ZM375.62 139.915V138.066L375.539 137.713V134.586C375.556 134.299 375.513 134.012 375.411 133.744C375.31 133.475 375.154 133.231 374.952 133.027C374.457 132.622 373.823 132.424 373.185 132.476C372.669 132.476 372.157 132.562 371.669 132.73C371.213 132.879 370.789 133.112 370.418 133.416L369.758 132.229C370.238 131.847 370.79 131.564 371.38 131.395C372.025 131.201 372.695 131.103 373.369 131.105C374.568 131.105 375.492 131.397 376.14 131.981C376.787 132.566 377.111 133.456 377.111 134.653V139.929L375.62 139.915Z" fill="#002766"/>
<path d="M386.699 131.091C387.351 131.079 387.998 131.221 388.586 131.504C389.132 131.78 389.578 132.219 389.865 132.759C390.195 133.415 390.354 134.145 390.328 134.879V139.911H388.745V135.063C388.796 134.369 388.574 133.683 388.126 133.151C387.897 132.929 387.624 132.757 387.325 132.646C387.026 132.535 386.706 132.488 386.388 132.508C385.878 132.496 385.374 132.609 384.918 132.837C384.504 133.053 384.167 133.393 383.953 133.808C383.715 134.307 383.6 134.856 383.617 135.409V139.911H382.034V131.172H383.55V133.526L383.303 132.9C383.59 132.327 384.051 131.859 384.621 131.564C385.263 131.236 385.978 131.073 386.699 131.091Z" fill="#002766"/>
<path d="M397.781 140.01C397.195 140.022 396.613 139.91 396.074 139.681C395.619 139.49 395.227 139.173 394.947 138.766C394.682 138.376 394.544 137.913 394.551 137.441C394.549 136.988 394.671 136.543 394.904 136.155C395.164 135.737 395.55 135.414 396.007 135.232C396.665 134.971 397.37 134.851 398.078 134.879H400.845V136.017H398.134C397.343 136.017 396.809 136.151 396.537 136.416C396.404 136.537 396.299 136.684 396.228 136.849C396.156 137.013 396.121 137.191 396.124 137.37C396.118 137.571 396.162 137.77 396.251 137.95C396.341 138.13 396.473 138.285 396.636 138.402C397.052 138.681 397.549 138.817 398.049 138.787C398.595 138.8 399.134 138.663 399.608 138.392C400.053 138.13 400.393 137.723 400.573 137.24L400.884 138.328C400.669 138.852 400.279 139.285 399.781 139.554C399.166 139.879 398.476 140.036 397.781 140.01ZM400.65 139.915V138.066L400.569 137.713V134.586C400.586 134.299 400.543 134.012 400.442 133.744C400.341 133.475 400.184 133.231 399.982 133.027C399.487 132.622 398.854 132.424 398.216 132.476C397.7 132.476 397.187 132.562 396.7 132.73C396.244 132.879 395.819 133.112 395.449 133.416L394.788 132.229C395.269 131.847 395.82 131.564 396.41 131.395C397.054 131.201 397.723 131.104 398.396 131.105C399.594 131.105 400.516 131.398 401.166 131.981C401.817 132.564 402.142 133.455 402.142 134.653V139.929L400.65 139.915Z" fill="#002766"/>
<path d="M410.704 139.551C409.916 139.564 409.137 139.379 408.438 139.013C407.784 138.67 407.237 138.155 406.855 137.522C406.471 136.848 406.269 136.085 406.269 135.308C406.269 134.532 406.471 133.769 406.855 133.094C407.239 132.468 407.786 131.958 408.438 131.621C409.138 131.259 409.916 131.077 410.704 131.091C411.412 131.082 412.112 131.238 412.75 131.547C413.369 131.854 413.882 132.339 414.223 132.939C414.588 133.674 414.778 134.484 414.778 135.305C414.778 136.126 414.588 136.935 414.223 137.671C413.88 138.275 413.368 138.766 412.75 139.084C412.115 139.401 411.413 139.561 410.704 139.551ZM410.901 143.212C410.111 143.209 409.325 143.09 408.569 142.858C407.894 142.674 407.267 142.345 406.732 141.893L407.491 140.674C407.933 141.046 408.441 141.329 408.99 141.508C409.59 141.711 410.219 141.814 410.852 141.812C411.887 141.812 412.644 141.568 413.128 141.084C413.612 140.6 413.852 139.865 413.852 138.876V137.059L414.018 135.328L413.937 133.561V131.172H415.449V138.724C415.449 140.26 415.065 141.392 414.297 142.12C413.529 142.848 412.397 143.212 410.901 143.212ZM410.901 138.165C411.439 138.18 411.971 138.058 412.449 137.812C412.888 137.581 413.255 137.234 413.509 136.808C413.764 136.355 413.898 135.844 413.898 135.324C413.898 134.804 413.764 134.293 413.509 133.84C413.256 133.416 412.889 133.07 412.449 132.844C411.97 132.601 411.439 132.479 410.901 132.49C410.361 132.48 409.826 132.601 409.343 132.844C408.903 133.07 408.536 133.415 408.283 133.84C408.03 134.294 407.898 134.805 407.898 135.324C407.898 135.844 408.03 136.355 408.283 136.808C408.537 137.235 408.904 137.582 409.343 137.812C409.821 138.055 410.351 138.177 410.887 138.165H410.901Z" fill="#002766"/>
<path d="M424.323 140.01C423.463 140.03 422.612 139.832 421.85 139.434C421.164 139.07 420.593 138.522 420.203 137.851C419.802 137.149 419.6 136.351 419.616 135.543C419.602 134.738 419.798 133.942 420.185 133.236C420.552 132.577 421.094 132.032 421.751 131.66C422.442 131.289 423.214 131.094 423.998 131.094C424.782 131.094 425.555 131.289 426.246 131.66C426.891 132.032 427.419 132.578 427.769 133.236C428.149 133.965 428.339 134.778 428.32 135.6C428.32 135.667 428.32 135.745 428.32 135.833C428.32 135.921 428.32 136.003 428.295 136.077H420.874V134.939H427.465L426.822 135.338C426.839 134.815 426.717 134.297 426.468 133.837C426.237 133.408 425.892 133.051 425.472 132.805C425.019 132.563 424.513 132.437 424 132.437C423.487 132.437 422.981 132.563 422.528 132.805C422.101 133.049 421.752 133.409 421.521 133.844C421.278 134.315 421.156 134.84 421.167 135.37V135.632C421.158 136.178 421.297 136.717 421.57 137.19C421.837 137.644 422.228 138.012 422.698 138.25C423.214 138.512 423.787 138.643 424.366 138.632C424.85 138.639 425.33 138.548 425.779 138.367C426.204 138.188 426.584 137.918 426.892 137.575L427.765 138.596C427.365 139.063 426.858 139.427 426.288 139.657C425.662 139.901 424.995 140.021 424.323 140.01Z" fill="#002766"/>
<path d="M443.43 131.091C444.075 131.079 444.713 131.221 445.292 131.504C445.834 131.78 446.275 132.219 446.554 132.759C446.88 133.417 447.036 134.145 447.01 134.879V139.911H445.427V135.063C445.478 134.373 445.266 133.69 444.833 133.151C444.618 132.931 444.358 132.759 444.071 132.648C443.784 132.537 443.476 132.489 443.168 132.508C442.686 132.497 442.209 132.611 441.783 132.836C441.385 133.058 441.065 133.397 440.868 133.808C440.638 134.31 440.528 134.858 440.546 135.409V139.911H438.963V135.063C439.016 134.374 438.806 133.691 438.377 133.151C438.162 132.928 437.901 132.755 437.612 132.644C437.323 132.533 437.014 132.487 436.705 132.508C436.229 132.497 435.757 132.611 435.338 132.836C434.937 133.058 434.614 133.397 434.412 133.808C434.178 134.309 434.065 134.857 434.083 135.409V139.911H432.5V131.172H434.016V133.497L433.769 132.904C434.04 132.336 434.484 131.868 435.037 131.568C435.65 131.238 436.338 131.073 437.034 131.087C437.8 131.068 438.553 131.284 439.193 131.706C439.818 132.151 440.244 132.823 440.38 133.579L439.737 133.314C440.009 132.637 440.496 132.07 441.122 131.699C441.819 131.283 442.619 131.072 443.43 131.091Z" fill="#002766"/>
<path d="M455.794 140.01C454.934 140.031 454.083 139.833 453.321 139.434C452.634 139.071 452.062 138.522 451.67 137.851C451.272 137.148 451.069 136.351 451.084 135.543C451.069 134.738 451.265 133.942 451.653 133.236C452.022 132.577 452.565 132.033 453.222 131.66C453.912 131.289 454.684 131.094 455.467 131.094C456.251 131.094 457.023 131.289 457.713 131.66C458.359 132.032 458.888 132.578 459.24 133.236C459.62 133.965 459.81 134.778 459.791 135.6C459.791 135.667 459.791 135.745 459.791 135.833C459.786 135.915 459.776 135.996 459.763 136.077H452.342V134.939H458.954L458.31 135.338C458.329 134.815 458.207 134.296 457.957 133.837C457.726 133.407 457.381 133.05 456.96 132.805C456.507 132.563 456.002 132.437 455.489 132.437C454.975 132.437 454.47 132.563 454.017 132.805C453.591 133.05 453.243 133.41 453.013 133.844C452.768 134.314 452.646 134.84 452.66 135.37V135.632C452.65 136.178 452.789 136.717 453.063 137.19C453.33 137.645 453.722 138.013 454.193 138.25C454.709 138.512 455.28 138.643 455.858 138.632C456.342 138.639 456.823 138.548 457.271 138.367C457.697 138.19 458.078 137.919 458.385 137.575L459.257 138.596C458.858 139.063 458.353 139.426 457.784 139.657C457.15 139.904 456.474 140.024 455.794 140.01Z" fill="#002766"/>
<path d="M468.64 131.091C469.293 131.079 469.939 131.221 470.527 131.504C471.072 131.781 471.519 132.219 471.807 132.759C472.134 133.416 472.291 134.145 472.266 134.879V139.911H470.683V135.063C470.736 134.369 470.514 133.682 470.064 133.151C469.836 132.928 469.563 132.756 469.263 132.645C468.964 132.534 468.644 132.487 468.326 132.508C467.817 132.496 467.314 132.609 466.859 132.836C466.444 133.052 466.107 133.392 465.895 133.808C465.649 134.305 465.527 134.855 465.541 135.409V139.911H463.958V131.172H465.478V133.526L465.227 132.9C465.516 132.327 465.978 131.86 466.548 131.564C467.195 131.234 467.914 131.071 468.64 131.091Z" fill="#002766"/>
<path d="M475.927 132.465V131.165H481.5V132.465H475.927ZM480.167 139.999C479.797 140.023 479.426 139.972 479.075 139.851C478.724 139.73 478.401 139.54 478.125 139.293C477.875 139.021 477.683 138.7 477.562 138.352C477.44 138.003 477.391 137.633 477.418 137.264V129.25H478.998V137.197C478.97 137.592 479.097 137.982 479.351 138.285C479.483 138.418 479.642 138.52 479.817 138.586C479.992 138.651 480.179 138.679 480.365 138.667C480.814 138.682 481.253 138.535 481.602 138.254L482.097 139.392C481.845 139.606 481.549 139.764 481.231 139.854C480.889 139.957 480.535 140.009 480.178 140.01L480.167 139.999Z" fill="#002766"/>
<path d="M495.988 140.045C495.131 140.049 494.28 139.913 493.468 139.643C492.768 139.427 492.121 139.066 491.57 138.582L492.182 137.296C492.679 137.716 493.249 138.04 493.864 138.254C494.542 138.506 495.26 138.635 495.984 138.632C496.537 138.651 497.09 138.573 497.617 138.402C497.982 138.287 498.304 138.066 498.542 137.766C498.739 137.502 498.843 137.18 498.839 136.851C498.846 136.673 498.815 136.496 498.748 136.332C498.681 136.167 498.58 136.019 498.451 135.897C498.16 135.634 497.818 135.435 497.447 135.31C497 135.154 496.545 135.024 496.083 134.921C495.592 134.812 495.094 134.685 494.592 134.536C494.117 134.397 493.658 134.206 493.224 133.967C492.819 133.745 492.476 133.424 492.228 133.034C491.957 132.579 491.825 132.055 491.849 131.525C491.845 130.945 492.009 130.376 492.32 129.886C492.673 129.351 493.177 128.933 493.768 128.684C494.559 128.354 495.411 128.199 496.267 128.228C496.94 128.229 497.61 128.318 498.26 128.494C498.871 128.647 499.451 128.903 499.977 129.25L499.433 130.571C498.952 130.252 498.422 130.014 497.864 129.865C497.344 129.72 496.807 129.645 496.267 129.642C495.722 129.624 495.179 129.708 494.666 129.889C494.303 130.016 493.985 130.245 493.751 130.55C493.561 130.82 493.461 131.143 493.464 131.472C493.456 131.653 493.486 131.832 493.552 132C493.618 132.168 493.72 132.319 493.85 132.444C494.142 132.704 494.485 132.901 494.857 133.02C495.303 133.174 495.757 133.303 496.217 133.409C496.712 133.526 497.207 133.653 497.709 133.794C498.184 133.928 498.643 134.117 499.076 134.356C499.479 134.58 499.822 134.897 500.076 135.282C500.345 135.728 500.476 136.243 500.454 136.762C500.456 137.339 500.29 137.904 499.977 138.388C499.612 138.924 499.099 139.341 498.5 139.589C497.705 139.918 496.848 140.074 495.988 140.045Z" fill="#002766"/>
<path d="M504.826 143.212C504.411 143.211 503.999 143.141 503.607 143.003C503.228 142.877 502.88 142.672 502.586 142.402L503.261 141.215C503.471 141.417 503.717 141.579 503.985 141.692C504.252 141.803 504.538 141.859 504.826 141.858C505.17 141.871 505.508 141.766 505.784 141.561C506.101 141.27 506.344 140.906 506.491 140.501L507.035 139.3L507.201 139.102L510.632 131.172H512.18L507.94 140.784C507.738 141.31 507.452 141.8 507.092 142.233C506.812 142.561 506.458 142.819 506.06 142.985C505.667 143.138 505.248 143.215 504.826 143.212ZM506.904 140.194L502.915 131.176H504.561L507.961 138.95L506.904 140.194Z" fill="#002766"/>
<path d="M518.032 140.01C517.332 140.015 516.635 139.916 515.965 139.717C515.412 139.566 514.891 139.32 514.424 138.989L515.081 137.738C515.511 138.016 515.977 138.232 516.466 138.381C517.01 138.554 517.578 138.642 518.148 138.642C518.697 138.684 519.246 138.576 519.739 138.331C519.891 138.242 520.016 138.114 520.102 137.96C520.188 137.806 520.231 137.631 520.226 137.455C520.232 137.332 520.207 137.209 520.156 137.098C520.104 136.986 520.027 136.888 519.929 136.812C519.696 136.639 519.429 136.518 519.145 136.459C518.82 136.381 518.463 136.31 518.067 136.25C517.671 136.19 517.276 136.112 516.88 136.02C516.509 135.938 516.15 135.812 515.809 135.646C515.487 135.485 515.214 135.241 515.017 134.939C514.803 134.572 514.7 134.151 514.721 133.727C514.711 133.229 514.868 132.741 515.166 132.342C515.492 131.924 515.929 131.607 516.427 131.427C517.047 131.2 517.704 131.091 518.364 131.105C518.95 131.107 519.533 131.177 520.103 131.313C520.615 131.419 521.104 131.618 521.544 131.9L520.869 133.151C520.494 132.896 520.075 132.711 519.633 132.607C519.211 132.508 518.779 132.459 518.346 132.458C517.807 132.426 517.27 132.549 516.799 132.812C516.644 132.898 516.516 133.024 516.426 133.176C516.336 133.328 516.288 133.501 516.286 133.678C516.279 133.807 516.303 133.937 516.356 134.055C516.408 134.174 516.489 134.278 516.59 134.36C516.829 134.527 517.097 134.647 517.382 134.713C517.737 134.808 518.099 134.882 518.463 134.936C518.859 134.997 519.255 135.075 519.65 135.169C520.018 135.255 520.373 135.384 520.71 135.554C521.031 135.717 521.304 135.961 521.502 136.261C521.723 136.616 521.83 137.03 521.809 137.448C521.82 137.944 521.656 138.428 521.346 138.816C521.001 139.228 520.55 139.539 520.043 139.717C519.395 139.935 518.714 140.034 518.032 140.01Z" fill="#002766"/>
<path d="M524.513 132.465V131.165H530.085V132.465H524.513ZM528.753 139.999C528.382 140.023 528.011 139.973 527.659 139.851C527.308 139.73 526.984 139.54 526.707 139.293C526.454 139.022 526.259 138.702 526.135 138.354C526.01 138.005 525.958 137.634 525.983 137.264V129.25H527.566V137.197C527.539 137.592 527.665 137.982 527.919 138.285C528.052 138.417 528.211 138.52 528.385 138.585C528.56 138.651 528.747 138.679 528.933 138.667C529.382 138.683 529.821 138.536 530.17 138.254L530.665 139.392C530.413 139.607 530.118 139.764 529.799 139.854C529.464 139.955 529.117 140.007 528.767 140.01L528.753 139.999Z" fill="#002766"/>
<path d="M538.164 140.01C537.304 140.03 536.453 139.832 535.69 139.434C535.004 139.07 534.434 138.522 534.044 137.851C533.643 137.149 533.44 136.351 533.457 135.543C533.442 134.738 533.639 133.942 534.026 133.236C534.393 132.577 534.935 132.032 535.591 131.66C536.282 131.289 537.055 131.094 537.839 131.094C538.623 131.094 539.395 131.289 540.086 131.66C540.732 132.032 541.26 132.578 541.609 133.236C541.992 133.964 542.181 134.778 542.161 135.6C542.161 135.667 542.161 135.745 542.161 135.833C542.161 135.921 542.161 136.003 542.136 136.077H534.715V134.939H541.327L540.684 135.338C540.701 134.815 540.579 134.297 540.33 133.837C540.1 133.407 539.755 133.05 539.334 132.805C538.881 132.563 538.375 132.437 537.862 132.437C537.349 132.437 536.843 132.563 536.39 132.805C535.963 133.049 535.614 133.409 535.383 133.844C535.14 134.315 535.018 134.84 535.03 135.37V135.632C535.02 136.178 535.159 136.717 535.432 137.19C535.699 137.644 536.09 138.012 536.56 138.25C537.076 138.512 537.649 138.643 538.228 138.632C538.712 138.639 539.192 138.548 539.641 138.367C540.066 138.188 540.446 137.918 540.754 137.575L541.627 138.596C541.227 139.063 540.72 139.427 540.15 139.657C539.518 139.904 538.843 140.024 538.164 140.01Z" fill="#002766"/>
<path d="M557.271 131.091C557.915 131.079 558.554 131.221 559.133 131.504C559.674 131.78 560.116 132.219 560.394 132.759C560.72 133.417 560.877 134.145 560.85 134.879V139.911H559.274V135.063C559.326 134.373 559.114 133.69 558.681 133.151C558.466 132.931 558.206 132.759 557.918 132.648C557.631 132.537 557.324 132.489 557.016 132.508C556.534 132.497 556.057 132.611 555.631 132.837C555.233 133.059 554.914 133.398 554.716 133.808C554.486 134.31 554.376 134.858 554.394 135.409V139.911H552.811V135.063C552.853 134.379 552.637 133.705 552.207 133.172C551.992 132.95 551.731 132.777 551.442 132.665C551.153 132.554 550.844 132.508 550.535 132.529C550.059 132.519 549.587 132.632 549.168 132.858C548.768 133.08 548.445 133.419 548.242 133.829C548.008 134.33 547.895 134.878 547.913 135.43V139.932H546.33V131.193H547.846V133.518L547.599 132.925C547.87 132.357 548.314 131.89 548.867 131.589C549.48 131.26 550.168 131.094 550.864 131.108C551.63 131.09 552.383 131.305 553.023 131.727C553.648 132.173 554.074 132.845 554.21 133.6L553.567 133.335C553.839 132.659 554.326 132.091 554.952 131.72C555.65 131.295 556.454 131.077 557.271 131.091Z" fill="#002766"/>
<defs>
<linearGradient id="paint0_linear_149404_203908" x1="0.0175781" y1="46.6943" x2="117.057" y2="46.6943" gradientUnits="userSpaceOnUse">
<stop stop-color="#177DDC"/>
<stop offset="1" stop-color="#006DBF"/>
</linearGradient>
<linearGradient id="paint1_linear_149404_203908" x1="102.371" y1="115.578" x2="197.288" y2="115.578" gradientUnits="userSpaceOnUse">
<stop stop-color="#177DDC"/>
<stop offset="1" stop-color="#006DBF"/>
</linearGradient>
<linearGradient id="paint2_linear_149404_203908" x1="50.0521" y1="61.635" x2="250.276" y2="61.635" gradientUnits="userSpaceOnUse">
<stop stop-color="#177DDC"/>
<stop offset="1" stop-color="#006DBF"/>
</linearGradient>
<linearGradient id="paint3_linear_149404_203908" x1="63.954" y1="102.531" x2="166.747" y2="19.9533" gradientUnits="userSpaceOnUse">
<stop stop-color="#3CA2EF"/>
<stop offset="1" stop-color="#0973CA"/>
</linearGradient>
<linearGradient id="paint4_linear_149404_203908" x1="102.392" y1="111.694" x2="189.552" y2="111.694" gradientUnits="userSpaceOnUse">
<stop stop-color="#3CA2EF"/>
<stop offset="1" stop-color="#006DBF"/>
</linearGradient>
<linearGradient id="paint5_linear_149404_203908" x1="0.180222" y1="74.5261" x2="102.112" y2="15.6034" gradientUnits="userSpaceOnUse">
<stop stop-color="#3CA2EF"/>
<stop offset="1" stop-color="#0973CA"/>
</linearGradient>
</defs>
</svg>
